<?xml version="1.0" encoding="utf-8"?>
<!-- Generator: Adobe Illustrator 25.4.1, SVG Export Plug-In . SVG Version: 6.00 Build 0)  -->
<svg version="1.1" id="Capa_1" xmlns="http://www.w3.org/2000/svg" xmlns:xlink="http://www.w3.org/1999/xlink" x="0px" y="0px"
	 viewBox="0 0 92 86" style="enable-background:new 0 0 92 86;" xml:space="preserve">
<style type="text/css">
	.st0{fill:#5EAFA8;}
</style>
<g>
	<path class="st0" d="M67.7,27.5L67.7,27.5c0.2,0.4,0.6,0.6,1,0.6c0.1,0,0.2,0,0.4-0.1c0.5-0.2,0.8-0.7,0.7-1.2
		c-1.3-7-4.1-13.2-8.6-19c0-0.1-0.1-0.1-0.1-0.2l0,0l-0.3-0.4l0,0l0,0L60.7,7c-2.6-3-5.8-7-11-7l0,0c-0.6,0-1.1,0-1.7,0.1
		c-2.6,0.4-4.7,1.8-6.4,4.3c-1.5,2.1-2.4,4.6-3.3,6.8c0,0-4.4,11.7-8.9,23.7l-0.6,1.6c-1.4-1.7-4-4.8-4.8-7c-1.2-3-0.7-6.6,1.4-10.7
		c1.6-3,4.1-6.3,7.5-9.7l0.5-0.5c2.9-3,5-5.1,7.9-5.3c0.3,0,0.6-0.3,0.6-0.7l-0.1-0.9c0-0.2-0.1-0.3-0.2-0.4
		c-0.1-0.1-0.3-0.2-0.4-0.2l0,0c-3.7,0.3-6.1,2.8-9.3,6l-0.5,0.5c-3.5,3.6-6.2,7-7.9,10.2c-2.5,4.6-3,8.8-1.5,12.5
		c1.2,3,4.8,7.1,6,8.5l-1.1,2.8c-0.1,0.2-0.1,0.3,0,0.5s0.2,0.3,0.4,0.3l0.8,0.3c0.1,0,0.1,0,0.2,0s0.2,0,0.3-0.1
		c0.2-0.1,0.3-0.2,0.3-0.4l1.2-3c2.5-0.5,9.4-2,12.2-3.4c9-4.4,9.3-15.5,9.1-20.1l-0.3-9.8c0.1-0.7,0.5-1.8,1.3-2.3
		c0.2-0.1,0.5-0.2,0.9-0.2c0.3,0,0.6,0.1,1,0.2C56,4.8,57.5,6.7,59,8.5l0,0l0.1,0.1c3.1,4,5.4,8.1,6.9,12.6
		c-3.2-3.9-7.2-7.1-11.8-9.3c-0.1,0-0.2-0.1-0.3-0.1c-0.2,0-0.5,0.1-0.6,0.4L53,13c-0.1,0.2-0.1,0.3,0,0.5s0.2,0.3,0.3,0.4
		C59.4,16.8,64.4,21.6,67.7,27.5z M49.1,16L49.1,16L49.1,16c0.3,4.2,0,14.3-7.9,18.1c-2.2,1.1-7.6,2.3-10.3,2.9
		c3.6-9.4,9.4-24.9,9.4-25c0.8-2,1.7-4.4,2.9-6.2c1.4-2.1,3.1-3.2,5.1-3.5c0.5-0.1,0.9-0.1,1.4-0.1c0.3,0,0.6,0,0.9,0
		c-1.4,1.2-1.7,3.2-1.7,3.4c0,0.1,0,0.1,0,0.2L49.1,16z"/>
	<path class="st0" d="M48.2,72.1h-3.6c-1.2-1.9-5.2-8.1-7.6-10.3c-2.8-2.6-6.4-4-10.7-4c-4.7,0-9.1,1.7-11.4,2.7l-9.3,3.8
		c-0.1,0-0.5,0.1-0.9,0.1c-0.5,0-1.2-0.1-1.7-0.5c-0.4-0.3-0.7-0.9-0.7-1.7C2.9,60.1,4.1,58,5.2,56l0.1-0.2c2.6-4.3,5.7-7.9,9.3-11
		c-2.4,4.3-3.9,9-4.4,13.9c0,0.2,0,0.3,0.1,0.5c0.1,0.1,0.3,0.2,0.4,0.2l0.9,0.1c0,0,0,0,0.1,0c0.3,0,0.6-0.2,0.6-0.6
		c0.6-6.7,3.2-12.9,7.5-18l0,0c0.3-0.4,0.4-1,0-1.4c-0.2-0.2-0.5-0.4-0.8-0.4l0,0c-0.2,0-0.4,0.1-0.6,0.2c-6,3.7-10.9,8.6-14.7,14.8
		c0,0-0.1,0.1-0.1,0.2l-0.2,0.4l-0.1,0.1v0.1c-1.1,1.9-2.4,4.1-3,6.5c-0.7,2.8-0.4,5.4,1,7.8c1.3,2.3,3.4,3.7,6.3,4.5
		c2.5,0.6,5.2,0.6,7.5,0.6h27c-1,1.9-3,5.3-4.7,6.9c-1.9,1.8-4.6,2.7-7.9,2.7c-0.8,0-1.7-0.1-2.6-0.2c-3.4-0.4-7.3-1.6-11.8-3.5
		l-0.7-0.3C10.8,78.2,8,77,6.8,74.4c-0.1-0.2-0.2-0.3-0.4-0.3c-0.1,0-0.1,0-0.2,0s-0.2,0-0.3,0.1l-0.8,0.4c-0.3,0.1-0.5,0.5-0.3,0.8
		c1.6,3.3,4.8,4.7,8.9,6.5l0.7,0.3c4.6,2,8.8,3.3,12.4,3.7c1,0.1,1.9,0.2,2.8,0.2c3.9,0,7-1.1,9.3-3.2s4.8-6.6,5.7-8.5h3.6
		c0.3,0,0.6-0.3,0.6-0.6v-0.9C48.8,72.4,48.5,72.1,48.2,72.1z M15.8,62.5L15.8,62.5c2.1-1,6.2-2.5,10.5-2.5c3.7,0,6.8,1.1,9.2,3.4
		c1.8,1.7,4.9,6.3,6.5,8.7H15.2c-2.2,0-4.7,0-6.9-0.5c-2.4-0.6-4.1-1.7-5.1-3.5c-0.4-0.7-0.7-1.4-0.9-2.1c0.7,0.3,1.5,0.5,2.4,0.5
		c0.8,0,1.4-0.1,1.4-0.1c0.1,0,0.1,0,0.2-0.1L15.8,62.5z"/>
	<path class="st0" d="M90.9,59l-0.2-0.7c-1.1-4.9-2.6-9-4.4-12.1c-2.6-4.5-5.9-7.2-9.7-7.9c-0.7-0.1-1.7-0.2-2.7-0.2
		c-2.5,0-5.3,0.4-7,0.6l-0.6-0.8C65.5,36.8,65,36.1,65,36c-0.1-0.1-0.2-0.2-0.4-0.3h-0.1c-0.1,0-0.3,0-0.4,0.1l-0.7,0.5
		C63,36.6,63,37,63.2,37.2l0.8,1l1,1.3c-0.4,1.1-3.5,9.2-3.9,12.7c-1.1,10,8.1,16.2,12.2,18.4l8.6,5.2c0.5,0.4,1.3,1.4,1.2,2.3
		c0,0.5-0.3,1.1-0.9,1.6c-2,0.9-4.4,1.2-6.7,1.4h-0.2l0,0c-1.6,0.2-3.1,0.2-4.6,0.2c-3.3,0-6.5-0.4-9.7-1.1
		c4.6-0.6,9.1-2.1,13.2-4.4c0.3-0.2,0.4-0.6,0.2-0.9L74,74.1c-0.1-0.1-0.2-0.3-0.4-0.3c-0.1,0-0.1,0-0.2,0s-0.2,0-0.3,0.1
		c-5,2.9-10.7,4.4-16.4,4.4c-0.6,0-1.3,0-1.9-0.1h-0.1h-0.1c-0.5,0-0.9,0.3-1,0.8s0.2,1,0.7,1.2c5.3,2.1,10.7,3.1,16.4,3.1
		c1.4,0,2.8-0.1,4.2-0.2c0,0,0,0,0.1,0h0.1l0.5-0.1l0,0l0,0h0.1h0.1c2.2-0.3,4.7-0.5,7-1.5c2.7-1.1,4.5-2.9,5.6-5.5
		c1-2.4,1-4.9-0.2-7.7c-1-2.3-2.6-4.5-4-6.4c-0.1-0.1-5.4-7.4-15.7-21.7c1.5-0.2,3.7-0.4,5.6-0.4c0.9,0,1.7,0.1,2.3,0.2
		c3.2,0.6,6,2.9,8.3,6.9c1.7,3,3.1,6.8,4.2,11.6l0.2,0.7c1,4.1,1.6,7,0.3,9.5c-0.1,0.1-0.1,0.3,0,0.5s0.2,0.3,0.3,0.4l0.8,0.4
		c0.1,0.1,0.2,0.1,0.3,0.1c0.2,0,0.4-0.1,0.6-0.3C92.7,66.8,91.9,63.4,90.9,59z M63.1,52.5c0.3-2.5,2.3-8.2,3.3-10.8
		c3.1,4.3,15.8,21.8,15.9,21.9c1.3,1.8,2.8,3.7,3.7,5.8c1,2.3,1.1,4.3,0.3,6.2c-0.3,0.7-0.7,1.4-1.1,1.9c-0.3-1.8-1.8-3.1-2-3.3
		l-0.1-0.1l-8.7-5.3l0,0C70.5,66.8,62.2,61.2,63.1,52.5z"/>
</g>
</svg>
