<svg xmlns="http://www.w3.org/2000/svg" xmlns:xlink="http://www.w3.org/1999/xlink" viewBox="0 0 172 98"><defs><style>.cls-1{opacity:0.25;}.cls-2{fill:#1d1d1b;}.cls-3{fill:url(#Degradado_sin_nombre_9);}.cls-4{fill:url(#Degradado_sin_nombre_9-2);}.cls-5{fill:#878787;}</style><linearGradient id="Degradado_sin_nombre_9" x1="58.81" y1="0.34" x2="64.42" y2="65.39" gradientUnits="userSpaceOnUse"><stop offset="0" stop-color="#1d1d1b"/><stop offset="0.28" stop-color="#20201e"/><stop offset="0.45" stop-color="#282826"/><stop offset="0.59" stop-color="#363634"/><stop offset="0.72" stop-color="#4a4a49"/><stop offset="0.83" stop-color="#646463"/><stop offset="0.93" stop-color="#848483"/><stop offset="1" stop-color="#9d9d9c"/></linearGradient><linearGradient id="Degradado_sin_nombre_9-2" x1="107.59" y1="-3.86" x2="113.2" y2="61.18" xlink:href="#Degradado_sin_nombre_9"/></defs><g id="Capa_2" data-name="Capa 2"><g id="Capa_1-2" data-name="Capa 1"><g class="cls-1"><path class="cls-2" d="M13.45,76.46,9.39,84.67h-2l-4-8.21v9.46H0v-15H4.53L8.4,79.15l3.89-8.25h4.52v15H13.45Z"/><path class="cls-2" d="M31.52,86l-1.4-3.25h-6.3L22.42,86H18.86l6.49-15h3.24l6.49,15ZM27,75.45l-1.89,4.36h3.76Zm1.42-5.82h-3l2.69-4.11L31.35,67Z"/><path class="cls-2" d="M40.54,73.77a1.3,1.3,0,0,0-.48,1,1.18,1.18,0,0,0,.59,1,10.78,10.78,0,0,0,2.73.92,7.68,7.68,0,0,1,3.32,1.58,3.88,3.88,0,0,1,1.18,3.07,4.06,4.06,0,0,1-1.51,3.28,6,6,0,0,1-4,1.26A9.22,9.22,0,0,1,36,83.32l2-2.45A7.07,7.07,0,0,0,42.45,83a2.33,2.33,0,0,0,1.45-.4,1.35,1.35,0,0,0,0-2.15,7.59,7.59,0,0,0-2.22-.8A9.52,9.52,0,0,1,37.82,78a3.81,3.81,0,0,1-1.22-3.13,3.87,3.87,0,0,1,1.54-3.3A6.12,6.12,0,0,1,42,70.43a9.28,9.28,0,0,1,3,.51A8,8,0,0,1,47.6,72.4l-1.69,2.45a6.68,6.68,0,0,0-4-1.48A2,2,0,0,0,40.54,73.77Z"/><path class="cls-2" d="M70.39,76.52l-4.07,8.21h-2l-4-8.21V86H56.93V71h4.54l3.87,8.25L69.23,71h4.51V86H70.39Z"/><path class="cls-2" d="M88.53,71v3H81.05V77h6.72v2.86H81.05V83h7.71v3H77.69V71Z"/><path class="cls-2" d="M102.84,71v3H95.36V77h6.73v2.86H95.36V83h7.72v3H92V71Z"/><path class="cls-2" d="M112.68,73.85V86h-3.35V73.85h-4.26V71h11.87v2.9Z"/><path class="cls-2" d="M119.65,71H123V86h-3.35Z"/><path class="cls-2" d="M137.46,71h3.35V86h-3.35l-7.15-9.41V86H127V71h3.14l7.37,9.67Z"/><path class="cls-2" d="M154.53,78.12h3.37v5.33a7.89,7.89,0,0,1-6.19,2.49,7.62,7.62,0,0,1-5.55-2.19,7.93,7.93,0,0,1,0-11.11,7.62,7.62,0,0,1,5.52-2.24,8.16,8.16,0,0,1,5.62,2.13L155.6,75a6.63,6.63,0,0,0-1.86-1.21,5,5,0,0,0-1.84-.33,4.38,4.38,0,0,0-3.22,1.3,5.18,5.18,0,0,0-.05,6.83,4.06,4.06,0,0,0,3,1.28,5.71,5.71,0,0,0,2.9-.67Z"/><path class="cls-2" d="M164.66,73.78a1.31,1.31,0,0,0-.48,1,1.19,1.19,0,0,0,.59,1,11,11,0,0,0,2.73.91,7.74,7.74,0,0,1,3.32,1.58A3.89,3.89,0,0,1,172,81.44a4.06,4.06,0,0,1-1.52,3.28,6,6,0,0,1-4,1.26,9.22,9.22,0,0,1-6.43-2.65l2-2.45A7.12,7.12,0,0,0,166.56,83a2.31,2.31,0,0,0,1.45-.4,1.33,1.33,0,0,0,0-2.15,7.38,7.38,0,0,0-2.21-.8A9.8,9.8,0,0,1,161.93,78a3.85,3.85,0,0,1-1.21-3.14,3.89,3.89,0,0,1,1.53-3.3,6.17,6.17,0,0,1,3.84-1.16,9.33,9.33,0,0,1,3,.51,8,8,0,0,1,2.62,1.47L170,74.87a6.61,6.61,0,0,0-4-1.49A2,2,0,0,0,164.66,73.78Z"/><polygon class="cls-2" points="93.91 40.95 81.63 40.95 103.43 4.94 115.72 4.94 93.91 40.95"/><path class="cls-3" d="M61.43,0a8.46,8.46,0,0,0-8.19,8.7v44a8.2,8.2,0,1,0,16.38,0V8.7A8.46,8.46,0,0,0,61.43,0Z"/><path class="cls-4" d="M110.57,0a8.46,8.46,0,0,0-8.19,8.7v44a8.2,8.2,0,1,0,16.38,0V8.7A8.46,8.46,0,0,0,110.57,0Z"/><path class="cls-5" d="M53.25,8.19c0-1.12.8-8.06,7.29-8.19,7.68-.15,9.29,6.79,10.8,9.54,1.33,2.4,11.58,20,12.61,21.7.83,1.37,3.5,7.05,11.21,7.65,0,0-3,6.24-9.65,6.22-6.85,0-9-5.85-9.6-7-.4-.72-15-24.7-16.73-27.58C56.83,6.77,53.33,8,53.25,8.19Z"/><path class="cls-2" d="M20.29,93.43a2.77,2.77,0,0,1-3,2.9H15.63v-5.8h1.64A2.77,2.77,0,0,1,20.29,93.43Zm-.83,0a2,2,0,0,0-2.19-2.15h-.81v4.29h.81A2,2,0,0,0,19.46,93.43Z"/><path class="cls-2" d="M25.34,94.55H22a1.35,1.35,0,0,0,1.45,1.16,1.4,1.4,0,0,0,1.1-.47l.62.4a2.08,2.08,0,0,1-1.72.79,2.2,2.2,0,0,1-.13-4.4A2.08,2.08,0,0,1,25.34,94.55Zm-.76-.64a1.21,1.21,0,0,0-1.25-1.17A1.29,1.29,0,0,0,22,93.91Z"/><path class="cls-2" d="M29.41,95.07c0,.74-.53,1.36-1.65,1.36a1.59,1.59,0,0,1-1.69-1l.74-.25c.07.22.29.52,1,.52s.85-.23.85-.6-.7-.49-1.28-.62c-.79-.17-1.13-.55-1.13-1.18A1.38,1.38,0,0,1,27.77,92a1.37,1.37,0,0,1,1.43,1l-.7.19a.76.76,0,0,0-.8-.48c-.41,0-.72.23-.72.58s.58.5,1.06.6C29.07,94.11,29.41,94.44,29.41,95.07Z"/><path class="cls-2" d="M31.4,92.85v1.84c0,.59,0,1,.66,1l.31,0v.67a2.18,2.18,0,0,1-.41,0c-.91,0-1.32-.49-1.32-1.41V92.85H30v-.72h.65v-.88h.76v.88h1v.72Z"/><path class="cls-2" d="M33.52,91a.43.43,0,0,1,.86,0,.43.43,0,0,1-.86,0Zm0,1.18h.76v4.2h-.76Z"/><path class="cls-2" d="M39.32,93.7v2.63h-.76V93.92c0-.59-.25-1.18-1-1.18a1.13,1.13,0,0,0-1.12,1.18v2.41h-.76v-4.2h.76v.58a1.5,1.5,0,0,1,1.3-.68A1.63,1.63,0,0,1,39.32,93.7Z"/><path class="cls-2" d="M44,93.79v2.54h-.75v-.58a1.65,1.65,0,0,1-1.38.68,1.35,1.35,0,0,1-1.49-1.23c0-1.32,1.6-1.35,2.19-1.35h.68c0-.64-.13-1.14-1-1.14a2,2,0,0,0-1.09.38l-.53-.41A2.62,2.62,0,0,1,42.4,92C43.61,92,44,92.79,44,93.79Zm-.75.65H43c-.78,0-1.8,0-1.8.73,0,.32.21.65.88.65a1.3,1.3,0,0,0,1.21-.7Z"/><path class="cls-2" d="M46.29,92.85v1.84c0,.59,0,1,.66,1l.31,0v.67a2.18,2.18,0,0,1-.41,0c-.91,0-1.31-.49-1.31-1.41V92.85h-.66v-.72h.66v-.88h.75v.88h1v.72Z"/><path class="cls-2" d="M48.41,91a.43.43,0,0,1,.86,0,.43.43,0,1,1-.86,0Zm.05,1.18h.76v4.2h-.76Z"/><path class="cls-2" d="M54.7,94.23A2.2,2.2,0,1,1,52.5,92,2.17,2.17,0,0,1,54.7,94.23Zm-.77,0a1.43,1.43,0,1,0-1.43,1.48A1.41,1.41,0,0,0,53.93,94.23Z"/><path class="cls-2" d="M59.44,93.7v2.63h-.75V93.92c0-.59-.25-1.18-1-1.18a1.13,1.13,0,0,0-1.12,1.18v2.41h-.75v-4.2h.75v.58a1.51,1.51,0,0,1,1.3-.68A1.62,1.62,0,0,1,59.44,93.7Z"/><path class="cls-2" d="M69.24,90.53v5.8h-.83V92.06l-2,2.94h-.3l-2-2.94v4.27h-.83v-5.8h.83l2.15,3.19,2.14-3.19Z"/><path class="cls-2" d="M74,93.79v2.54h-.76v-.58a1.64,1.64,0,0,1-1.37.68,1.35,1.35,0,0,1-1.49-1.23c0-1.32,1.6-1.35,2.18-1.35h.68c0-.64-.13-1.14-1-1.14a1.93,1.93,0,0,0-1.08.38l-.53-.41A2.62,2.62,0,0,1,72.37,92C73.58,92,74,92.79,74,93.79Zm-.76.65h-.29c-.78,0-1.79,0-1.79.73,0,.32.2.65.87.65a1.3,1.3,0,0,0,1.21-.7Z"/><path class="cls-2" d="M79,93.7v2.63h-.75V93.92c0-.59-.25-1.18-1-1.18a1.13,1.13,0,0,0-1.11,1.18v2.41H75.3v-4.2h.76v.58a1.48,1.48,0,0,1,1.3-.68A1.62,1.62,0,0,1,79,93.7Z"/><path class="cls-2" d="M83.66,93.79v2.54h-.75v-.58a1.68,1.68,0,0,1-1.38.68A1.35,1.35,0,0,1,80,95.2c0-1.32,1.6-1.35,2.19-1.35h.68c0-.64-.14-1.14-1-1.14a1.93,1.93,0,0,0-1.08.38l-.53-.41A2.62,2.62,0,0,1,82.05,92C83.26,92,83.66,92.79,83.66,93.79Zm-.75.65h-.29c-.78,0-1.8,0-1.8.73,0,.32.21.65.88.65a1.3,1.3,0,0,0,1.21-.7Z"/><path class="cls-2" d="M89,92.13v3.76A1.94,1.94,0,0,1,86.86,98a2.27,2.27,0,0,1-1.9-.85l.64-.38a1.48,1.48,0,0,0,1.26.52,1.3,1.3,0,0,0,1.4-1.48v-.32a1.66,1.66,0,0,1-1.43.72,2.09,2.09,0,1,1,0-4.18,1.68,1.68,0,0,1,1.43.71v-.61Zm-.76,2a1.31,1.31,0,0,0-1.35-1.37,1.38,1.38,0,1,0,0,2.76A1.32,1.32,0,0,0,88.26,94.11Z"/><path class="cls-2" d="M94.24,94.55H90.9a1.35,1.35,0,0,0,1.45,1.16,1.38,1.38,0,0,0,1.1-.47l.62.4a2.08,2.08,0,0,1-1.72.79,2.2,2.2,0,0,1-.13-4.4A2.09,2.09,0,0,1,94.24,94.55Zm-.77-.64a1.21,1.21,0,0,0-1.25-1.17,1.29,1.29,0,0,0-1.32,1.17Z"/><path class="cls-2" d="M101.24,93.55v2.78h-.75V93.77c0-.59-.29-1-.9-1a1,1,0,0,0-.92,1v2.56h-.76V93.77c0-.59-.29-1-.89-1a1,1,0,0,0-.93,1v2.56h-.75v-4.2h.75v.49A1.33,1.33,0,0,1,97.22,92a1.42,1.42,0,0,1,1.21.68A1.57,1.57,0,0,1,99.77,92,1.48,1.48,0,0,1,101.24,93.55Z"/><path class="cls-2" d="M106.46,94.55h-3.34a1.5,1.5,0,0,0,2.55.69l.62.4a2.07,2.07,0,0,1-1.72.79,2.2,2.2,0,0,1-.12-4.4A2.08,2.08,0,0,1,106.46,94.55Zm-.76-.64a1.21,1.21,0,0,0-1.25-1.17,1.31,1.31,0,0,0-1.33,1.17Z"/><path class="cls-2" d="M111.22,93.7v2.63h-.75V93.92c0-.59-.25-1.18-1-1.18a1.13,1.13,0,0,0-1.12,1.18v2.41h-.75v-4.2h.75v.58a1.51,1.51,0,0,1,1.31-.68A1.62,1.62,0,0,1,111.22,93.7Z"/><path class="cls-2" d="M113.58,92.85v1.84c0,.59,0,1,.67,1l.3,0v.67a2.15,2.15,0,0,1-.4,0c-.92,0-1.32-.49-1.32-1.41V92.85h-.66v-.72h.66v-.88h.75v.88h1v.72Z"/><path class="cls-2" d="M122.64,94.9l.68.46a3,3,0,1,1-2.3-4.93,2.86,2.86,0,0,1,2.3,1.07l-.68.45A2,2,0,0,0,121,91.2a2.23,2.23,0,0,0,0,4.46A2,2,0,0,0,122.64,94.9Z"/><path class="cls-2" d="M128.47,94.23a2.2,2.2,0,1,1-2.2-2.2A2.17,2.17,0,0,1,128.47,94.23Zm-.77,0a1.43,1.43,0,1,0-1.43,1.48A1.41,1.41,0,0,0,127.7,94.23Z"/><path class="cls-2" d="M135.46,93.55v2.78h-.76V93.77c0-.59-.29-1-.9-1a1,1,0,0,0-.92,1v2.56h-.75V93.77c0-.59-.29-1-.9-1a1,1,0,0,0-.93,1v2.56h-.75v-4.2h.75v.49a1.35,1.35,0,0,1,1.13-.59,1.41,1.41,0,0,1,1.21.68A1.59,1.59,0,0,1,134,92,1.48,1.48,0,0,1,135.46,93.55Z"/><path class="cls-2" d="M141.16,94.23a2.12,2.12,0,0,1-2.09,2.2,1.87,1.87,0,0,1-1.54-.69v2.18h-.75V92.13h.75v.58a1.92,1.92,0,0,1,1.54-.68A2.12,2.12,0,0,1,141.16,94.23Zm-.78,0A1.38,1.38,0,0,0,139,92.74a1.49,1.49,0,0,0,0,3A1.36,1.36,0,0,0,140.38,94.23Z"/><path class="cls-2" d="M145.6,93.79v2.54h-.75v-.58a1.65,1.65,0,0,1-1.38.68A1.35,1.35,0,0,1,142,95.2c0-1.32,1.6-1.35,2.19-1.35h.68c0-.64-.13-1.14-1-1.14a2,2,0,0,0-1.09.38l-.53-.41A2.62,2.62,0,0,1,144,92C145.2,92,145.6,92.79,145.6,93.79Zm-.75.65h-.29c-.78,0-1.8,0-1.8.73,0,.32.21.65.88.65a1.3,1.3,0,0,0,1.21-.7Z"/><path class="cls-2" d="M150.59,93.7v2.63h-.76V93.92c0-.59-.24-1.18-1-1.18a1.13,1.13,0,0,0-1.12,1.18v2.41h-.75v-4.2h.75v.58A1.5,1.5,0,0,1,149,92,1.62,1.62,0,0,1,150.59,93.7Z"/><path class="cls-2" d="M155.49,92.13l-2.29,5.79h-.81l.74-1.81-1.76-4h.84l1.29,3,1.15-3Z"/></g></g></g></svg>