<svg xmlns="http://www.w3.org/2000/svg" xmlns:xlink="http://www.w3.org/1999/xlink" viewBox="0 0 213 64.04"><defs><style>.cls-1{fill:#27348b;}.cls-2{fill:url(#Degradado_sin_nombre_72);}.cls-3{fill:url(#Degradado_sin_nombre_72-2);}.cls-4{fill:#00abb1;}</style><linearGradient id="Degradado_sin_nombre_72" x1="8.52" y1="64.55" x2="8.52" y2="0.31" gradientUnits="userSpaceOnUse"><stop offset="0" stop-color="#00abb1"/><stop offset="0.05" stop-color="#03a2ae"/><stop offset="0.36" stop-color="#12739f"/><stop offset="0.63" stop-color="#1e5194"/><stop offset="0.85" stop-color="#253c8d"/><stop offset="1" stop-color="#27348b"/></linearGradient><linearGradient id="Degradado_sin_nombre_72-2" x1="59.64" y1="64.55" x2="59.64" y2="0.31" xlink:href="#Degradado_sin_nombre_72"/></defs><g id="Capa_2" data-name="Capa 2"><g id="Capa_1-2" data-name="Capa 1"><path class="cls-1" d="M93.6,13.68,88.52,24H86L81,13.68V25.5H76.78V6.72h5.67L87.29,17,92.15,6.72h5.64V25.5H93.6Z"/><path class="cls-1" d="M116.18,25.6l-1.75-4.06h-7.87l-1.74,4.06h-4.46l8.11-18.78h4.06l8.11,18.78Zm-5.67-13.19-2.36,5.45h4.7Zm1.77-7.27h-3.79L111.86,0,116,1.89Z"/><path class="cls-1" d="M127.47,10.31a1.63,1.63,0,0,0-.61,1.32,1.48,1.48,0,0,0,.74,1.3A13.78,13.78,0,0,0,131,14.07a9.63,9.63,0,0,1,4.15,2,4.89,4.89,0,0,1,1.47,3.84,5.09,5.09,0,0,1-1.89,4.1,7.52,7.52,0,0,1-5,1.57,11.51,11.51,0,0,1-8-3.31l2.5-3.06c2,1.78,3.9,2.66,5.62,2.66a3,3,0,0,0,1.81-.49,1.61,1.61,0,0,0,.66-1.35,1.55,1.55,0,0,0-.7-1.34,9.19,9.19,0,0,0-2.77-1,12.07,12.07,0,0,1-4.79-2,4.76,4.76,0,0,1-1.52-3.92,4.88,4.88,0,0,1,1.92-4.13,7.78,7.78,0,0,1,4.8-1.45,11.58,11.58,0,0,1,3.76.65,10.19,10.19,0,0,1,3.28,1.83l-2.13,3.06a8.24,8.24,0,0,0-5-1.86A2.52,2.52,0,0,0,127.47,10.31Z"/><path class="cls-1" d="M92.63,40.23,87.81,50H85.45l-4.79-9.73v11.2h-4V33.64h5.37l4.58,9.77,4.61-9.77H96.6V51.43h-4Z"/><path class="cls-1" d="M114.11,33.64v3.54h-8.86v3.66h8v3.39h-8v3.69h9.14v3.51H101.28V33.64Z"/><path class="cls-1" d="M131.07,33.64v3.54h-8.86v3.66h8v3.39h-8v3.69h9.14v3.51H118.24V33.64Z"/><path class="cls-1" d="M142.73,37.08V51.43h-4V37.08h-5V33.64h14.05v3.44Z"/><path class="cls-1" d="M151,33.64h4V51.43h-4Z"/><path class="cls-1" d="M172.09,33.64h4V51.43h-4l-8.48-11.15V51.43h-4V33.64h3.71l8.74,11.45Z"/><path class="cls-1" d="M192.3,42.13h4v6.31a9.35,9.35,0,0,1-7.33,3,9.08,9.08,0,0,1-6.59-2.6,8.8,8.8,0,0,1-2.66-6.56,8.83,8.83,0,0,1,2.72-6.6A9,9,0,0,1,189,33a9.7,9.7,0,0,1,6.66,2.52l-2.07,3a7.61,7.61,0,0,0-2.2-1.44,6,6,0,0,0-2.18-.39,5.17,5.17,0,0,0-3.81,1.54,5.44,5.44,0,0,0-1.56,4.06,5.51,5.51,0,0,0,1.49,4,4.83,4.83,0,0,0,3.55,1.52A6.89,6.89,0,0,0,192.3,47Z"/><path class="cls-1" d="M204.31,37a1.51,1.51,0,0,0-.58,1.25,1.41,1.41,0,0,0,.7,1.23,12.81,12.81,0,0,0,3.24,1.09,9,9,0,0,1,3.93,1.87,4.62,4.62,0,0,1,1.4,3.64A4.82,4.82,0,0,1,211.21,50a7.2,7.2,0,0,1-4.73,1.49,10.91,10.91,0,0,1-7.61-3.13l2.37-2.9q2.88,2.52,5.32,2.52a2.77,2.77,0,0,0,1.72-.48,1.51,1.51,0,0,0,.62-1.27,1.48,1.48,0,0,0-.66-1.27,8.69,8.69,0,0,0-2.62-1A11.4,11.4,0,0,1,201.07,42a4.54,4.54,0,0,1-1.44-3.72,4.6,4.6,0,0,1,1.82-3.9A7.33,7.33,0,0,1,206,33a11.1,11.1,0,0,1,3.56.61,9.69,9.69,0,0,1,3.11,1.73l-2,2.91a7.86,7.86,0,0,0-4.79-1.76A2.4,2.4,0,0,0,204.31,37Z"/><polygon class="cls-1" points="42.31 42.74 29.53 42.74 52.21 5.28 64.99 5.28 42.31 42.74"/><path class="cls-2" d="M8.52.14A8.79,8.79,0,0,0,0,9.19V55a8.78,8.78,0,0,0,8.52,9A8.78,8.78,0,0,0,17,55V9.19A8.79,8.79,0,0,0,8.52.14Z"/><path class="cls-3" d="M59.64.14a8.79,8.79,0,0,0-8.52,9V55a8.53,8.53,0,1,0,17,0V9.19A8.79,8.79,0,0,0,59.64.14Z"/><path class="cls-4" d="M0,8.66C0,7.5.85.28,7.59.14c8-.16,9.67,7.06,11.24,9.92,1.38,2.5,12,20.8,13.12,22.58.86,1.42,3.64,7.33,11.66,8,0,0-3.14,6.49-10,6.47-7.13,0-9.34-6.09-10-7.24C23.17,39.08,8,14.14,6.18,11.15,3.74,7.18.1,8.5,0,8.66Z"/><path class="cls-1" d="M85.05,58.61a2.44,2.44,0,0,1-2.66,2.55H80.94v-5.1h1.45A2.44,2.44,0,0,1,85.05,58.61Zm-.74,0a1.76,1.76,0,0,0-1.92-1.89h-.72V60.5h.72A1.77,1.77,0,0,0,84.31,58.61Z"/><path class="cls-1" d="M89.49,59.6H86.55a1.32,1.32,0,0,0,2.25.6l.54.35a1.79,1.79,0,0,1-1.51.7,1.94,1.94,0,0,1-.11-3.87A1.83,1.83,0,0,1,89.49,59.6ZM88.82,59a1.07,1.07,0,0,0-1.1-1,1.16,1.16,0,0,0-1.17,1Z"/><path class="cls-1" d="M93.07,60.05c0,.66-.47,1.2-1.45,1.2a1.41,1.41,0,0,1-1.49-.84l.65-.22c.06.19.25.45.85.45s.75-.2.75-.52-.62-.43-1.13-.55c-.69-.15-1-.49-1-1a1.38,1.38,0,0,1,2.63-.31l-.62.17a.68.68,0,0,0-.7-.43c-.37,0-.64.21-.64.51s.51.45.94.54C92.77,59.21,93.07,59.5,93.07,60.05Z"/><path class="cls-1" d="M94.82,58.1v1.62c0,.52,0,.87.58.87h.27v.58a1.71,1.71,0,0,1-.36,0c-.8,0-1.16-.44-1.16-1.24V58.1h-.57v-.64h.57v-.77h.67v.77h.85v.64Z"/><path class="cls-1" d="M96.68,56.43a.38.38,0,1,1,.38.38A.38.38,0,0,1,96.68,56.43Zm0,1h.68v3.7h-.68Z"/><path class="cls-1" d="M101.78,58.85v2.31h-.66V59c0-.52-.22-1-.91-1a1,1,0,0,0-1,1v2.12h-.66v-3.7h.66V58a1.32,1.32,0,0,1,1.15-.6A1.43,1.43,0,0,1,101.78,58.85Z"/><path class="cls-1" d="M105.91,58.93v2.23h-.66v-.51a1.46,1.46,0,0,1-1.21.6,1.18,1.18,0,0,1-1.31-1.08c0-1.16,1.4-1.19,1.92-1.19h.6c0-.56-.12-1-.88-1a1.75,1.75,0,0,0-1,.33L103,58a2.3,2.3,0,0,1,1.55-.57C105.56,57.38,105.91,58.05,105.91,58.93Zm-.66.57H105c-.68,0-1.58,0-1.58.64,0,.28.19.57.78.57a1.15,1.15,0,0,0,1.06-.61Z"/><path class="cls-1" d="M107.92,58.1v1.62c0,.52,0,.87.58.87h.27v.58a1.71,1.71,0,0,1-.36,0c-.8,0-1.16-.44-1.16-1.24V58.1h-.57v-.64h.57v-.77h.67v.77h.85v.64Z"/><path class="cls-1" d="M109.78,56.43a.38.38,0,1,1,.38.38A.38.38,0,0,1,109.78,56.43Zm0,1h.68v3.7h-.68Z"/><path class="cls-1" d="M115.32,59.31a1.94,1.94,0,1,1-1.94-1.93A1.91,1.91,0,0,1,115.32,59.31Zm-.68,0a1.26,1.26,0,1,0-2.51,0,1.26,1.26,0,1,0,2.51,0Z"/><path class="cls-1" d="M119.49,58.85v2.31h-.67V59c0-.52-.22-1-.91-1a1,1,0,0,0-1,1v2.12h-.66v-3.7h.66V58a1.3,1.3,0,0,1,1.14-.6A1.44,1.44,0,0,1,119.49,58.85Z"/><path class="cls-1" d="M128.11,56.06v5.1h-.73V57.41L125.62,60h-.26l-1.76-2.58v3.75h-.73v-5.1h.73l1.89,2.8,1.89-2.8Z"/><path class="cls-1" d="M132.27,58.93v2.23h-.66v-.51a1.46,1.46,0,0,1-1.21.6,1.18,1.18,0,0,1-1.31-1.08c0-1.16,1.4-1.19,1.92-1.19h.6c0-.56-.12-1-.88-1a1.75,1.75,0,0,0-1,.33l-.46-.36a2.32,2.32,0,0,1,1.55-.57C131.92,57.38,132.27,58.05,132.27,58.93Zm-.66.57h-.26c-.68,0-1.58,0-1.58.64,0,.28.19.57.78.57a1.15,1.15,0,0,0,1.06-.61Z"/><path class="cls-1" d="M136.66,58.85v2.31H136V59c0-.52-.22-1-.92-1a1,1,0,0,0-1,1v2.12h-.66v-3.7h.66V58a1.31,1.31,0,0,1,1.15-.6A1.43,1.43,0,0,1,136.66,58.85Z"/><path class="cls-1" d="M140.79,58.93v2.23h-.66v-.51a1.46,1.46,0,0,1-1.21.6,1.18,1.18,0,0,1-1.31-1.08c0-1.16,1.4-1.19,1.92-1.19h.6c0-.56-.12-1-.88-1a1.75,1.75,0,0,0-1,.33l-.47-.36a2.32,2.32,0,0,1,1.56-.57C140.44,57.38,140.79,58.05,140.79,58.93Zm-.66.57h-.26c-.68,0-1.58,0-1.58.64,0,.28.18.57.77.57a1.16,1.16,0,0,0,1.07-.61Z"/><path class="cls-1" d="M145.5,57.46v3.31a1.71,1.71,0,0,1-1.89,1.86,2,2,0,0,1-1.68-.74l.57-.34a1.3,1.3,0,0,0,1.11.45,1.13,1.13,0,0,0,1.22-1.29v-.29a1.43,1.43,0,0,1-1.25.64,1.84,1.84,0,1,1,0-3.68,1.44,1.44,0,0,1,1.25.62v-.54Zm-.67,1.75A1.15,1.15,0,0,0,143.65,58a1.22,1.22,0,1,0,0,2.43A1.16,1.16,0,0,0,144.83,59.21Z"/><path class="cls-1" d="M150.09,59.6h-2.93a1.31,1.31,0,0,0,2.24.6l.55.35a1.82,1.82,0,0,1-1.52.7,1.94,1.94,0,0,1-.11-3.87A1.83,1.83,0,0,1,150.09,59.6Zm-.67-.57a1.06,1.06,0,0,0-1.1-1,1.14,1.14,0,0,0-1.16,1Z"/><path class="cls-1" d="M156.26,58.72v2.44h-.66V58.91c0-.52-.26-.91-.8-.91a.84.84,0,0,0-.81.91v2.25h-.66V58.91c0-.52-.26-.91-.79-.91a.84.84,0,0,0-.81.91v2.25h-.67v-3.7h.67v.44a1.16,1.16,0,0,1,1-.52,1.24,1.24,0,0,1,1.06.59,1.42,1.42,0,0,1,1.18-.59A1.31,1.31,0,0,1,156.26,58.72Z"/><path class="cls-1" d="M160.85,59.6h-2.94a1.32,1.32,0,0,0,2.25.6l.54.35a1.8,1.8,0,0,1-1.51.7,1.94,1.94,0,0,1-.11-3.87A1.84,1.84,0,0,1,160.85,59.6Zm-.67-.57a1.07,1.07,0,0,0-1.1-1,1.15,1.15,0,0,0-1.17,1Z"/><path class="cls-1" d="M165,58.85v2.31h-.67V59c0-.52-.21-1-.91-1a1,1,0,0,0-1,1v2.12h-.66v-3.7h.66V58a1.3,1.3,0,0,1,1.14-.6A1.44,1.44,0,0,1,165,58.85Z"/><path class="cls-1" d="M167.11,58.1v1.62c0,.52,0,.87.59.87H168v.58a1.79,1.79,0,0,1-.36,0c-.8,0-1.16-.44-1.16-1.24V58.1h-.58v-.64h.58v-.77h.66v.77H168v.64Z"/><path class="cls-1" d="M175.08,59.91l.6.4a2.65,2.65,0,1,1,0-3.39l-.6.39a1.79,1.79,0,0,0-1.42-.66,2,2,0,0,0,0,3.92A1.79,1.79,0,0,0,175.08,59.91Z"/><path class="cls-1" d="M180.21,59.31a1.94,1.94,0,1,1-1.93-1.93A1.91,1.91,0,0,1,180.21,59.31Zm-.67,0a1.26,1.26,0,1,0-1.26,1.31A1.25,1.25,0,0,0,179.54,59.31Z"/><path class="cls-1" d="M186.36,58.72v2.44h-.67V58.91c0-.52-.25-.91-.79-.91a.84.84,0,0,0-.81.91v2.25h-.66V58.91c0-.52-.26-.91-.79-.91a.85.85,0,0,0-.82.91v2.25h-.66v-3.7h.66v.44a1.19,1.19,0,0,1,1-.52,1.26,1.26,0,0,1,1.06.59,1.42,1.42,0,0,1,1.18-.59A1.31,1.31,0,0,1,186.36,58.72Z"/><path class="cls-1" d="M191.37,59.31a1.87,1.87,0,0,1-1.84,1.94,1.64,1.64,0,0,1-1.35-.61v1.92h-.66v-5.1h.66V58a1.66,1.66,0,0,1,1.35-.6A1.87,1.87,0,0,1,191.37,59.31Zm-.68,0A1.21,1.21,0,0,0,189.47,58a1.31,1.31,0,0,0,0,2.62A1.21,1.21,0,0,0,190.69,59.31Z"/><path class="cls-1" d="M195.28,58.93v2.23h-.66v-.51a1.46,1.46,0,0,1-1.21.6,1.18,1.18,0,0,1-1.31-1.08C192.1,59,193.5,59,194,59h.6c0-.56-.12-1-.88-1a1.75,1.75,0,0,0-1,.33l-.46-.36a2.28,2.28,0,0,1,1.55-.57C194.93,57.38,195.28,58.05,195.28,58.93Zm-.66.57h-.26c-.68,0-1.58,0-1.58.64,0,.28.18.57.77.57a1.16,1.16,0,0,0,1.07-.61Z"/><path class="cls-1" d="M199.67,58.85v2.31H199V59c0-.52-.21-1-.91-1a1,1,0,0,0-1,1v2.12h-.66v-3.7h.66V58a1.3,1.3,0,0,1,1.14-.6A1.44,1.44,0,0,1,199.67,58.85Z"/><path class="cls-1" d="M204,57.46l-2,5.1h-.71L201.9,61l-1.54-3.51h.74l1.13,2.67,1-2.67Z"/></g></g></svg>