<svg xmlns="http://www.w3.org/2000/svg" viewBox="0 0 588 399.61"><defs><style>.cls-1{fill:#5399ae;opacity:0.55;}</style></defs><g id="Capa_2" data-name="Capa 2"><g id="Capa_1-2" data-name="Capa 1"><path class="cls-1" d="M583.3,205c2.78-.83,5.78-3,4.31-8.44a6.84,6.84,0,0,1-.12-1.42c0-.37,0-.73,0-1.1q-.41-4.08-.83-8.2l-.25-2.5a1.12,1.12,0,0,0-1.16-1L454.92,187l.1-.24c1-2.23,1.82-4.18,2.65-6.13.09-.19.2-.4.32-.61a3.28,3.28,0,0,0,.62-2.46c-.62-2.16-1.38-4.32-2.12-6.4l-.8-2.28a1.12,1.12,0,0,0-1.25-.74l-3.64.61c-3.26.56-6.42,1.1-9.6,1.55a3,3,0,0,1-2-.41q-3.37-2.72-6.8-5.36c-9.1-7.12-18.52-14.48-25.74-23.87-.63-1-1.38-7.18-.87-8.27a3.6,3.6,0,0,1,1.27-.63l1.16-.42a23.86,23.86,0,0,1,4.07-1.24c3.7-.65,3.61-3.65,3.56-5.43v-.5c0-2-3.28-3.31-3.31-3.32a28.72,28.72,0,0,0-3.38-1.07,25.42,25.42,0,0,1-3.06-1c-1.93-.78-4.44-1.31-6.71,1.59a14.92,14.92,0,0,1-10.12,6A7.3,7.3,0,0,0,384,130c-3.32,5.06-6.81,10.14-10.18,15.06l-1,1.52c-.21.3-.7,1-.77,1.11a22.47,22.47,0,0,0-3,.38c-2.34.41-4.36.75-6.27-.63s-3.77-1.15-5.44.79c-1.3,1.51-2.64,3-4,4.47l-1,1.13-2.39-2.39c-2.58-2.59-5-5-7.36-7.43l-.65-.67a19.54,19.54,0,0,1-2.91-3.39c-1.74-2.83-3.41-5.7-5.08-8.57-1.47-2.51-2.93-5-4.43-7.5-.51-.84-.49-1.21.11-2.21l.87-1.43a78.33,78.33,0,0,0,5.42-10,74.27,74.27,0,0,0,3-9.14c.34-1.21.67-2.42,1-3.62A6.32,6.32,0,0,0,340,96c0-.22,0-.45.06-.71a1.13,1.13,0,0,0-1.42-1.21l-2.67.75c-2.23.62-4.34,1.22-6.46,1.75-1.36.33-1.85.29-2,.2-4.57-2.5-9.08-1.59-13.44-.7l-1,.2-1.66.34c-4.27.91-8.3,1.77-12-1A3.69,3.69,0,0,1,298,93.82c-.74-4.91-1.35-9.86-1.81-14.71-.32-3.38-1.06-6.91-4.28-9.85-4.1-3.73-8.08-7.74-11.94-11.62l-2-2a3.66,3.66,0,0,1-1.18-1.79c.38-5.37-2.13-9.1-7.46-11.08a5.6,5.6,0,0,1-.95-.54,7,7,0,0,0-1.41-.77c-1.55-.58-2.07-1.5-2-3.52.1-3.15-.35-5-1.46-5.88-3.78-3.14-5.56-7.36-7.44-11.83l-.38-.9a9.83,9.83,0,0,0-3.64-4.23C245.34,10.84,238.64,6.75,232.17,3A33.45,33.45,0,0,0,225,.1a4.22,4.22,0,0,0-3.82,1.23l-.18.21c-.9,1-2.39,2.74-.83,5.14a36,36,0,0,1,1.78,3.2,30.75,30.75,0,0,0,2.4,4.13c3.54,4.89,3.72,8.63.6,12.5a1.91,1.91,0,0,0-.35.77,159.79,159.79,0,0,1-20.39,35.59c-1.58,2.06-2.92,2.79-4.78,2.59-6.6-.71-12,1.46-16.46,6.64-1.78,2.06-6.83,1.93-9.17.35a7.87,7.87,0,0,0-4.58-1.4c-3.93.15-8,.51-12,1A11.84,11.84,0,0,0,152.05,74c-7,5.07-13.78,10.22-18.89,14.15a7.1,7.1,0,0,0-2.23,3.33c-.92,2.79-1.75,5.62-2.59,8.46l-.66,2.23-.08,0a10.1,10.1,0,0,0-2.11-.23c-1.93.11-2.62-.52-3-2.74-.84-4.44-2.08-8.86-3.28-13.13L118.85,85a6,6,0,0,0-2.21-3.06c-2.49-1.79-5.3-3.66-8.83-5.91-.84-.53-1-.91-.74-1.92.33-1.32.58-2.66.82-4a42.85,42.85,0,0,1,1.31-5.68c1.2-3.6,1.24-6.29.12-8.48s-3.28-3.69-6.66-4.74a1.13,1.13,0,0,0-1.22.39l-.5.65c-.49.66-1.15,1.54-1.86,2.37-2.8,3.27-5.69,6.19-10.38,5.74-1.42-.11-2.68,1.81-3,2.65-1.48,4.21-3,8.87-4.88,14.67-.2.63-.47,1.29-.73,2-.82,2.06-1.67,4.18-1.09,6.09.75,2.48,3.54,4.33,6.1,5.88,3.7,2.22,5,5.41,4.31,10.34a2.29,2.29,0,0,1-.44,1.19c-3.73,3.53-8.3,3.5-13.87,3.09a1.67,1.67,0,0,1-.73-.57c-3.63-4.69-8.67-6.47-15.42-5.44a20.09,20.09,0,0,1-3.5.11c-.49,0-1,0-1.47,0H32.92a1.14,1.14,0,0,0-1.1.88l-2.19,9.76-5.73-4.31a1.13,1.13,0,0,0-1.54.17c-.58.68-1.13,1.37-1.68,2a33.79,33.79,0,0,1-3.6,4c-2.89,2.61-3.4,5.92-3.51,8.81C13,137.09,12.45,151,12,165.27a9.74,9.74,0,0,0,1.56,5.06c.81,1.29,1.75,2.51,2.65,3.69a26.55,26.55,0,0,1,3.62,5.56l.75,1.7c2.73,6.27,5.56,12.76,5.85,19.76a4.47,4.47,0,0,0,3,4.22c4.21,1.9,7.46,3.73,8,8.37.78,7.15,4.86,12.47,12.49,16.27A5.08,5.08,0,0,1,52,232.81c.88,3.28,1.67,6.59,2.46,9.9s1.6,6.71,2.51,10a27.51,27.51,0,0,0,1.94,4.75c.4.82.8,1.65,1.22,2.67a4.69,4.69,0,0,1,.53,1.93l0,.3c-1.4,9.65-1.4,9.65-9.93,14.1-2.92,1.52-5.64,3.53-5.8,8,0,1-.39,1.79-2,2.25-5.91,1.66-12.17,3.57-19.71,6a5.41,5.41,0,0,0-3,2.71C19,298,18,300.54,17,303l-1,2.51a10.21,10.21,0,0,1-5,6,67.28,67.28,0,0,0-7.39,4.61c-1,.7-2.06,1.41-3.12,2.1A1.12,1.12,0,0,0,.36,320l.32.32a1.63,1.63,0,0,0,.91.57l7.77,1.46q21.26,4,42.53,7.89a13.06,13.06,0,0,1,5,1.84H48.06A1.14,1.14,0,0,0,47,333.52a2.86,2.86,0,0,1,.08.31,1.47,1.47,0,0,0,.61,1c.34.22.7.41,1.06.6l.22.11c4.21,2.19,8.55,4.29,12.74,6.33,11.3,5.5,23,11.19,33.24,18.93a9.3,9.3,0,0,0,4.67,1.39l36.82,3.19q17.34,1.48,34.67,3l.54.05a17.52,17.52,0,0,1,5.66,1.09c3,1.38,6.05,2.94,9,4.44s5.79,3,8.74,4.33,5.88,2.88,8.72,4.35c7.19,3.73,14.63,7.59,23,9.24,5.68,1.11,11.41,2.47,16.95,3.79,4.64,1.1,9.43,2.24,14.17,3.23a25,25,0,0,0,4.72.69c2.72,0,3.81-1.38,6.5-5.18a3.49,3.49,0,0,1,3.13-1.67c4.79-.15,9.85-.36,15.44-.65l3.06-.13c7.22-.27,14.69-.55,21-5.92A12.71,12.71,0,0,1,314,384.6c.4-.21.8-.42,1.19-.64,1.88-1.1,3.74-2.26,5.59-3.43a79.21,79.21,0,0,1,12.36-6.79c11.52-4.6,23.39-8.9,34.88-13.06q7.53-2.71,15.05-5.48c1.19-.44,2.39-.85,3.59-1.26,6.66-2.29,13.54-4.65,18-11.38a23.4,23.4,0,0,1,2.81-3.26c.6-.62,1.2-1.24,1.86-2,4.41-5.08,8.57-9.87,15.29-11.24a10.46,10.46,0,0,0,2-.66,10,10,0,0,1,1.39-.5,5.22,5.22,0,0,0,4.24-4.64c.14-1.1.45-1.43,2.26-1.45,9.69-.1,19.38-.28,29.08-.46l7.53-.14c.66,0,1.33-.06,2-.1l.9-.05a1.15,1.15,0,0,0,1-.76l.36-1a1.12,1.12,0,0,0-.56-1.37c-.61-.32-1.21-.65-1.81-1a30.68,30.68,0,0,0-4.27-2.08c-6.88-2.49-14.05-2.49-20.76-2.13a6.17,6.17,0,0,1-6.08-2.85c.3-.34.61-.71.91-1.08.94-1.13,2-2.42,2.86-2.52,6.1-.71,9.77-3.68,11.54-9.35l.08-.28a3.88,3.88,0,0,1,.42-1.06c2.27-1.59,4.62-3.06,6.85-4.42l.16.12,9.42,9.39,1.19,1.2a9.82,9.82,0,0,1-1.17,2.53c-1.2,2.09-2.85,5,.51,8.31a1.15,1.15,0,0,0,.8.33.88.88,0,0,0,.81-.34l3.33-3.38c3.43-3.5,6.82-6.95,10.27-10.36a8.16,8.16,0,0,1,1.15-.82c2.35,1,4.67,2.18,6.92,3.32l1.49.76c-2,6.67-2.2,6.82-7.81,10.44L486.39,313l-2.32,1.47a1.13,1.13,0,0,0-.49,1.23,1.12,1.12,0,0,0,1,.85c7.32.55,14.54.57,21.53.59h1.59a11.43,11.43,0,0,1,2.81.23q16.05,4.35,32.07,8.83c6.75,1.89,13.5,3.83,20.35,5.79l9.6,2.75a1.13,1.13,0,0,0,1.43-.94c0-.28.11-.59.17-.87.2-.89.41-1.82-.27-2.45a18.64,18.64,0,0,1-1.58-1.74c-1.4-1.64-3-3.5-5.79-4-3.55-.61-7.14-1.51-10.6-2.38l-.92-.23a3.43,3.43,0,0,1-1.68-.78c-1.85-3.84-5.06-5.61-9.88-5.38a18.38,18.38,0,0,1-3.5-.32l-2.11-.31c-2.18-.32-4.44-.65-6.58-1.18a21.3,21.3,0,0,1-6.15-2.28c-2.18-1.37-3.48-2.87-3.45-3.35a14.75,14.75,0,0,1,1.82-5.17l.64-1.36,4.72,2.21c6.24,2.94,12.13,5.71,18.17,8.42a6,6,0,0,0,4.57-.18,48.33,48.33,0,0,0,4.94-2.82l1.11-.69,5.37,8.83a1.13,1.13,0,0,0,1,.55,1.17,1.17,0,0,0,1-.7l1.1-2.62c.92-2.18,1.72-4.06,2.43-6a4.6,4.6,0,0,0-.24-3.46c-2.42-4.37-2.37-8.78.13-13.49a5.15,5.15,0,0,0,.72-2.3l0-.62a6.33,6.33,0,0,0-.5-3.4c-3.24-5.73-6.71-11.62-10.61-18a2.22,2.22,0,0,1-.1-2.6c3.39-7,6.19-12.89,8.8-18.95a12.12,12.12,0,0,0,.72-6.23,76.83,76.83,0,0,0-1.57-7.61c-.17-.72-.35-1.44-.52-2.18,5.53-1.31,9.94-4.44,14.22-7.47.75-.53,1.5-1.06,2.25-1.57a5.09,5.09,0,0,0,1.89-4c-.14-3-.52-5.92-.89-8.79l-.19-1.52C582.45,205.26,582.71,205.12,583.3,205ZM580.4,207l.19,1.52c.36,2.83.73,5.76.88,8.63a3,3,0,0,1-.93,2l-2.26,1.59c-4.58,3.24-8.9,6.3-14.48,7.34a1.13,1.13,0,0,0-.73.49,1.16,1.16,0,0,0-.17.87c.26,1.13.52,2.24.79,3.33.6,2.55,1.18,5,1.52,7.39a9.9,9.9,0,0,1-.55,5c-2.6,6-5.38,11.89-8.77,18.86a4.43,4.43,0,0,0,.21,4.76c3.88,6.36,7.34,12.23,10.58,17.94a5.06,5.06,0,0,1,.2,2.19l0,.68a3.44,3.44,0,0,1-.45,1.27c-2.85,5.36-2.89,10.63-.12,15.64a2.3,2.3,0,0,1,.09,1.6c-.69,1.91-1.47,3.77-2.38,5.92l-.25.59-4.81-7.91a1.12,1.12,0,0,0-1.54-.38c-.72.43-1.42.87-2.11,1.29a46.39,46.39,0,0,1-4.71,2.7,3.84,3.84,0,0,1-2.67.16c-6-2.71-11.91-5.47-18.14-8.4L524,299.42a1.12,1.12,0,0,0-.88,0,1.15,1.15,0,0,0-.64.62c-.32.79-.7,1.55-1.07,2.32a16.73,16.73,0,0,0-2,6c-.15,2.25,3.1,4.54,4.51,5.41a23.26,23.26,0,0,0,6.8,2.57c2.25.55,4.56.89,6.8,1.21l2.08.32a19.92,19.92,0,0,0,4,.34c3.89-.17,6.28,1.08,7.74,4.1.57,1.19,2.23,1.76,3.16,2l.91.22c3.51.89,7.14,1.8,10.78,2.42,2,.34,3.13,1.68,4.44,3.22.47.56,1,1.13,1.5,1.67,0,.11,0,.24-.08.37l-8.42-2.42c-6.85-2-13.6-3.9-20.36-5.8q-16-4.5-32.09-8.83a12.74,12.74,0,0,0-3.41-.3h-1.58c-5.83,0-11.84,0-17.9-.36,1.54-1,3.09-2,4.62-2.94,6.38-4.11,6.63-4.46,9-12.6a1.13,1.13,0,0,0-.58-1.33L499,296.42c-2.28-1.15-4.63-2.34-7-3.38-1.35-.57-3.12.78-3.64,1.29-3.45,3.42-6.85,6.88-10.3,10.38l-2.46,2.51c-1.16-1.66-.43-2.93.59-4.72a9.8,9.8,0,0,0,1.54-4,1.14,1.14,0,0,0-.33-.89l-1.6-1.6c-3-3-6.22-6.22-9.42-9.4-.06,0-1.41-1.37-2.5-.7-2.39,1.45-4.93,3-7.4,4.76a4,4,0,0,0-1.28,2.26l-.08.26c-1.49,4.78-4.47,7.17-9.64,7.77-1.76.21-3.07,1.8-4.34,3.33a20.55,20.55,0,0,1-1.38,1.57,1.11,1.11,0,0,0-.19,1.4c2.09,3.48,4.68,4.89,8.6,4.66,6.47-.35,13.37-.36,19.88,2a26.89,26.89,0,0,1,3.93,1.93l.05,0-.88,0-7.53.14c-9.69.18-19.38.36-29.06.46-1.32,0-4.06.05-4.48,3.43a3,3,0,0,1-2.55,2.73,13.21,13.21,0,0,0-1.7.6,10.47,10.47,0,0,1-1.57.54c-7.48,1.51-12.09,6.83-16.64,12.08-.53.61-1.11,1.21-1.68,1.79a26,26,0,0,0-3.08,3.59c-4,6.09-10.25,8.23-16.84,10.49-1.22.42-2.44.84-3.64,1.28-5,1.85-10,3.66-15,5.48-11.5,4.17-23.4,8.47-34.95,13.09a80,80,0,0,0-12.72,7c-1.83,1.15-3.66,2.3-5.52,3.38l-1.11.6a14.87,14.87,0,0,0-2.78,1.75c-5.67,4.86-12.42,5.11-19.58,5.38-1,0-2.06.07-3.08.13-5.59.28-10.62.49-15.4.64a5.69,5.69,0,0,0-4.91,2.64c-3.35,4.73-3.35,4.73-8.9,3.57-4.72-1-9.5-2.12-14.11-3.22-5.57-1.32-11.32-2.69-17-3.81-8.06-1.58-15.36-5.37-22.41-9-2.87-1.48-5.82-3-8.81-4.4s-5.83-2.84-8.65-4.28-6-3.08-9.07-4.49a19.1,19.1,0,0,0-6.41-1.28l-.53-.05q-17.34-1.51-34.67-3L99.78,360a7.53,7.53,0,0,1-3.5-1c-10.43-7.87-22.22-13.6-33.62-19.15-3.68-1.79-7.47-3.64-11.18-5.54h8.43a1.12,1.12,0,0,0,.81-1.9A14.25,14.25,0,0,0,52.3,328Q31,324.12,9.78,320.11L3.5,318.94l1.41-1a66.18,66.18,0,0,1,7.14-4.46,12.62,12.62,0,0,0,6.11-7.14l1-2.52c.95-2.48,1.94-5,3-7.47a3.22,3.22,0,0,1,1.64-1.49c7.52-2.42,13.75-4.32,19.63-6,2.4-.68,3.61-2.1,3.69-4.35.1-2.74,1.34-4.38,4.58-6.07,9.29-4.84,9.6-5.28,11.13-15.78l0-.29a6.5,6.5,0,0,0-.76-3.31c-.36-.88-.78-1.74-1.2-2.6a25.71,25.71,0,0,1-1.79-4.36c-.9-3.31-1.71-6.7-2.49-10s-1.59-6.65-2.48-10a7.35,7.35,0,0,0-3.29-4.34c-7-3.48-10.56-8.08-11.25-14.49-.63-5.81-4.75-8.14-9.28-10.19A2.24,2.24,0,0,1,28.73,201c-.31-7.43-3.22-14.11-6-20.57l-.74-1.7a29.33,29.33,0,0,0-3.91-6c-.87-1.13-1.77-2.31-2.53-3.51a7.37,7.37,0,0,1-1.21-3.79c.41-14.25.93-28.17,1.53-43.6.1-2.54.5-5.17,2.77-7.21a35.34,35.34,0,0,0,3.84-4.31l1-1.18,6.27,4.72a1.14,1.14,0,0,0,1.07.16,1.12,1.12,0,0,0,.71-.81l2.38-10.59H54l1.42,0a22.25,22.25,0,0,0,3.9-.13c5.94-.92,10.16.54,13.28,4.59a3.65,3.65,0,0,0,2.34,1.43c4.83.36,10.85.8,15.6-3.7a4.43,4.43,0,0,0,1.13-2.5c.85-5.8-.91-9.92-5.38-12.61-1.59-1-4.55-2.74-5.11-4.59-.35-1.15.35-2.91,1-4.6.28-.72.57-1.43.78-2.12,1.84-5.77,3.39-10.41,4.87-14.6a3.11,3.11,0,0,1,.83-1.13c5.65.43,9.07-3,12.1-6.54.75-.87,1.44-1.78,1.95-2.47,2.34.83,3.83,1.93,4.57,3.36.82,1.61.74,3.75-.25,6.74a42.53,42.53,0,0,0-1.39,6c-.24,1.29-.47,2.59-.79,3.87a3.57,3.57,0,0,0,1.72,4.37c3.49,2.22,6.26,4.08,8.72,5.84a3.77,3.77,0,0,1,1.36,1.82l.31,1.13c1.18,4.23,2.4,8.6,3.23,12.94.43,2.23,1.45,4.76,5.37,4.58a6.74,6.74,0,0,1,1.6.19c.35.07.72.14,1.13.2a1.13,1.13,0,0,0,1.24-.8l.95-3.19c.83-2.82,1.65-5.62,2.56-8.4A5,5,0,0,1,134.54,90c5.09-3.91,11.84-9.06,18.83-14.11a9.53,9.53,0,0,1,4.15-1.52c3.95-.53,7.91-.88,11.77-1a5.92,5.92,0,0,1,3.23,1c3.19,2.17,9.54,2.25,12.14-.74a15.87,15.87,0,0,1,14.51-5.88c3.4.37,5.43-1.65,6.82-3.46a161.55,161.55,0,0,0,20.67-36.08,1.81,1.81,0,0,0,0-.23c5-6.16,2.07-11.65-.53-15.25a28.88,28.88,0,0,1-2.22-3.83A38.49,38.49,0,0,0,222,5.44c-.58-.89-.32-1.32.64-2.41l.2-.23a2.13,2.13,0,0,1,1.45-.53A30.82,30.82,0,0,1,231,4.94c6.44,3.75,13.12,7.82,19.85,12.1a7.53,7.53,0,0,1,2.77,3.2l.38.9c1.9,4.52,3.87,9.19,8.08,12.69.18.14.74.87.64,4.06-.06,1.88.24,4.51,3.48,5.72a5.3,5.3,0,0,1,1,.54,7.49,7.49,0,0,0,1.41.77c4.39,1.64,6.3,4.43,6,8.8-.09,1.32.94,2.66,1.83,3.55l1.95,2c3.87,3.9,7.88,7.93,12,11.7,2.51,2.29,3.24,5,3.56,8.39.46,4.9,1.08,9.89,1.83,14.84a5.84,5.84,0,0,0,2.3,3.29c4.51,3.39,9.25,2.39,13.82,1.41l1.63-.34,1-.2c4.14-.84,8.06-1.64,11.9.47a5.21,5.21,0,0,0,3.65,0c2.15-.54,4.28-1.14,6.53-1.77l1.08-.3,0,.08c-.36,1.21-.7,2.44-1,3.66a73.35,73.35,0,0,1-2.86,8.87,78,78,0,0,1-5.27,9.72l-.88,1.44a3.87,3.87,0,0,0-.1,4.54c1.49,2.47,2.95,5,4.4,7.47,1.68,2.88,3.36,5.77,5.11,8.61a21.92,21.92,0,0,0,3.23,3.81l.65.65c2.38,2.44,4.78,4.85,7.37,7.44l3.22,3.23a1.09,1.09,0,0,0,.83.34,1.14,1.14,0,0,0,.81-.37l1.83-2c1.41-1.52,2.77-3,4.08-4.53,1-1.15,1.52-1.08,2.4-.44,2.67,1.95,5.49,1.47,8,1a20.11,20.11,0,0,1,2.68-.35c1.14-.05,1.95-1.23,2.55-2.1l1-1.51c3.37-4.93,6.87-10,10.2-15.1a4.94,4.94,0,0,1,3.63-2.62,17.09,17.09,0,0,0,11.61-6.81c1.13-1.44,2.16-1.66,4.09-.88a29.56,29.56,0,0,0,3.32,1,25,25,0,0,1,3.1,1,6,6,0,0,1,1.91,1.26v.53c.06,2.06-.07,2.86-1.69,3.15a25.55,25.55,0,0,0-4.46,1.34l-1.13.41a4.67,4.67,0,0,0-2.34,1.43c-1.25,1.7-.19,9.56.89,11,7.4,9.62,16.93,17.07,26.15,24.28,2.27,1.77,4.53,3.54,6.77,5.34a5.29,5.29,0,0,0,3.75.88c3.2-.44,6.39-1,9.67-1.55l2.69-.45.49,1.38c.76,2.15,1.48,4.17,2.06,6.16a4.41,4.41,0,0,1-.4.85,8,8,0,0,0-.42.82c-.84,2-1.68,3.89-2.65,6.12l-.82,1.88a1.14,1.14,0,0,0,.11,1.09,1,1,0,0,0,1,.49l131-4.73.15,1.44c.28,2.75.55,5.47.82,8.2,0,.3,0,.6,0,.91a8,8,0,0,0,.2,2c.86,3.19.05,4.84-2.78,5.68C580,203.58,580.27,206,580.4,207Z"/></g></g></svg>