<svg xmlns="http://www.w3.org/2000/svg" viewBox="0 0 50 50.05"><defs><style>.cls-1{fill:#bfbfbf;}</style></defs><g id="Capa_2" data-name="Capa 2"><g id="Capa_1-2" data-name="Capa 1"><g id="servicios-4"><path class="cls-1" d="M33.1,23.3c0-.22,0-.39,0-.55,0-.52,0-1.05,0-1.57a8,8,0,0,0-4.62-7.37,7.69,7.69,0,0,0-6.13-.36,8.22,8.22,0,0,0-2.3,1.23,2.26,2.26,0,0,1-.28.19c-.4-.24-.6-.66-.95-1a3.75,3.75,0,0,1,.27-.28c.36-.27.74-.53,1.13-.81a4.83,4.83,0,0,1,1.51-4A4.55,4.55,0,0,1,25,7.47a4.61,4.61,0,0,1,3.59,1.61,4.81,4.81,0,0,1,1.19,3.69l.55.38a9.52,9.52,0,0,1,4.28,7.66c0,.67,0,1.33,0,2,0,.21,0,.41,0,.61l.49.34a1.91,1.91,0,0,1,.81,1.48c0,.54,0,1.09,0,1.63a2,2,0,0,1-1.86,1.94l-.89,0a1.9,1.9,0,0,0-.12.36,7.31,7.31,0,0,1-3,4.91,1.1,1.1,0,0,0-.54,1.08c0,.5,0,1,0,1.5,0,.16,0,.32,0,.52.22.05.42.1.62.13l5.67.94a5.74,5.74,0,0,1,2.69,1.09,4,4,0,0,1,1.64,3.23c0,2.33,0,4.66,0,7,0,.1,0,.2,0,.33a4.26,4.26,0,0,1-1.18.07c-.39,0-.79,0-1.18,0l-1.16,0a2.69,2.69,0,0,1,0-1.42c.66-.1,1.35,0,2.06-.07a2.71,2.71,0,0,0,0-.37c0-1.84,0-3.67,0-5.5a2.51,2.51,0,0,0-1.17-2.16,4.36,4.36,0,0,0-1.85-.71l-5.23-.87a2,2,0,0,0-.89-.09c0,.14,0,.28-.05.42-.08,3.09,0,8.68.08,9.27.79.1,1.6,0,2.43.06A3.09,3.09,0,0,1,32,50l-.39,0c-3.33.07-21,0-21.71,0a2,2,0,0,1-.05-.34c0-2.36,0-4.71,0-7.07A4,4,0,0,1,12,39a6.33,6.33,0,0,1,2.24-.76l5.67-.93c.18,0,.36-.08.52-.12a12.05,12.05,0,0,0,0-2.72c-.23-.18-.48-.36-.72-.56a7.41,7.41,0,0,1-2.4-3.21c-.15-.41-.24-.84-.35-1.26-.05-.2-.09-.4-.14-.63l-.71,0a2.12,2.12,0,0,1-2.11-2.12V25.53a2.13,2.13,0,0,1,1.08-1.93l.24-.16c0-.14,0-.3,0-.46,0-.67,0-1.34,0-2a9.47,9.47,0,0,1,1.84-5.48c.12-.17.26-.32.42-.51a5.33,5.33,0,0,1,1.08.89c-.08.13-.15.25-.23.36a8.12,8.12,0,0,0-1.65,5v1.56c0,.16,0,.33,0,.49a1.43,1.43,0,0,0,.81.09,2,2,0,0,0,.76,0,14.89,14.89,0,0,0,.44-1.62,11.44,11.44,0,0,1,.45-1.56,2.75,2.75,0,0,1,.75.36l4.67,2.67a1.45,1.45,0,0,0,.76.21H32.6C32.74,23.34,32.89,23.32,33.1,23.3Zm-1.52,1.52-.7,0c-1.83,0-3.66,0-5.49,0a2.33,2.33,0,0,1-1.24-.33c-1.17-.69-2.34-1.35-3.52-2-.1-.05-.21-.08-.34-.13-.29.82-.39,1.65-.67,2.44l-1.22.07a3.62,3.62,0,0,0,0,.4c0,1,0,2,0,2.93a5.79,5.79,0,0,0,1.72,4.1,8.83,8.83,0,0,0,4.76,2.43.86.86,0,0,0,.42,0c.51-.13,1-.25,1.5-.42a8,8,0,0,0,3.11-1.91,5.75,5.75,0,0,0,1.76-3.77c.06-1.18,0-2.37,0-3.56C31.64,25,31.61,24.94,31.58,24.82ZM11.37,48.49a3.93,3.93,0,0,0,.45,0h8a1.2,1.2,0,0,0,.65-.07c.07-.48.12-8.24.06-9.38,0-.1,0-.19-.06-.3h-.33l-5.91,1a4.15,4.15,0,0,0-1.41.49,2.65,2.65,0,0,0-1.5,2.47c0,1.75,0,3.5,0,5.25A4.7,4.7,0,0,0,11.37,48.49ZM28,41.83c0-.14,0-.2,0-.26V35.7c0-.1,0-.22-.14-.29l-.67.22c-.62.18-1.24.35-1.86.54a1.27,1.27,0,0,1-.67,0,14.82,14.82,0,0,1-2.16-.63c-.14-.06-.29-.18-.5,0v3.16c0,.52,0,1,0,1.56a9.9,9.9,0,0,0,.05,1.63l2.75,1.49a.47.47,0,0,0,.47,0l1.65-.89Zm-3,3.25-.76-.4-1.76-1a2.34,2.34,0,0,0-.4-.13,1.56,1.56,0,0,0-.05.22c0,1.48,0,3,0,4.43a1.42,1.42,0,0,0,0,.22c.56.08,3.48.12,5.51.06.12,0,.24,0,.36,0a1.36,1.36,0,0,0,.06-.2c0-1.5,0-3,0-4.49a1.3,1.3,0,0,0-.06-.23,12.94,12.94,0,0,0-1.44.73A13.55,13.55,0,0,1,25,45.08Zm3.28-33a2.46,2.46,0,0,0,0-.39,3.24,3.24,0,0,0-.56-1.37A3.3,3.3,0,0,0,24.23,9a3.34,3.34,0,0,0-2.48,2.67,2.08,2.08,0,0,0,0,.41A9.83,9.83,0,0,1,25,11.54,10.42,10.42,0,0,1,28.25,12.09ZM16.86,24.88a1.41,1.41,0,0,0-.8-.06.55.55,0,0,0-.52.54c0,.47,0,.95,0,1.43a.54.54,0,0,0,.45.53,1.35,1.35,0,0,0,.88-.05C16.87,26.48,16.88,25.69,16.86,24.88ZM33.2,27.36c.21,0,.4,0,.58,0a.63.63,0,0,0,.68-.66c0-.26,0-.54,0-.8,0-1-.18-1.17-1.17-1.08,0,0-.07,0-.11.06A10.84,10.84,0,0,0,33.2,27.36Z"/><path class="cls-1" d="M13.9,18.3c-.28-.2-.45-.31-.61-.44C12.05,16.9,10.82,16,9.6,15a1.42,1.42,0,0,0-1-.34c-2,0-4.08,0-6.12,0a3.49,3.49,0,0,1-.86-.08,2.18,2.18,0,0,1-1.65-2V2.16A2.21,2.21,0,0,1,2.16,0h9.3a2.58,2.58,0,0,1,1.1.18A2.15,2.15,0,0,1,13.9,2.06c0,.21,0,.42,0,.63v14.8C13.91,17.72,13.91,17.94,13.9,18.3Zm-1.58-3.07a.85.85,0,0,0,.13-.61v-12a4.1,4.1,0,0,0,0-.5.69.69,0,0,0-.66-.64H2.21a.71.71,0,0,0-.73.76c0,.13,0,.25,0,.38v9.43c0,.15,0,.29,0,.44a.7.7,0,0,0,.68.69,5.23,5.23,0,0,0,.56,0H9.16a1.27,1.27,0,0,1,.91.3c.56.47,1.15.9,1.72,1.35Z"/><path class="cls-1" d="M36.12,18.28c0-.28,0-.44,0-.6V2.49a4.44,4.44,0,0,1,0-.63,2.17,2.17,0,0,1,2-1.85h9.44a2.54,2.54,0,0,1,1,.14A2.17,2.17,0,0,1,50,2.07c0,.12,0,.25,0,.37v9.75a3.44,3.44,0,0,1,0,.56,2.18,2.18,0,0,1-2,1.89,5.19,5.19,0,0,1-.56,0c-2,0-4,0-5.94,0a1.6,1.6,0,0,0-1.08.37c-1.2,1-2.42,1.9-3.64,2.85Zm1.42-3c.22-.14.35-.21.46-.29.61-.47,1.23-.93,1.82-1.42a1.62,1.62,0,0,1,1.13-.4c2.1,0,4.2,0,6.31,0a5.28,5.28,0,0,0,.56,0,.72.72,0,0,0,.7-.74c0-.12,0-.25,0-.37V2.57a3.09,3.09,0,0,0,0-.43.68.68,0,0,0-.65-.65,3.2,3.2,0,0,0-.44,0H38.68c-.12,0-.25,0-.37,0a.73.73,0,0,0-.76.75,4.13,4.13,0,0,0,0,.5V15.29Z"/><path class="cls-1" d="M35,50a6.34,6.34,0,0,1-1.38,0,4.5,4.5,0,0,1,0-1.37,1.85,1.85,0,0,1,.69-.07h.64A3.41,3.41,0,0,1,35,50Z"/><path class="cls-1" d="M28.66,16.72a4.64,4.64,0,0,1,1.39,0,1.63,1.63,0,0,1,.07.69c0,.2,0,.41,0,.63a2.87,2.87,0,0,1-1.36.06c-.16-.23-.09-.46-.1-.69S28.66,17,28.66,16.72Z"/><path class="cls-1" d="M27.14,16.61a4,4,0,0,1-1.34,0,5.24,5.24,0,0,1-.06-1.31,3,3,0,0,1,1.39-.06A3.12,3.12,0,0,1,27.14,16.61Z"/><path class="cls-1" d="M22.55,29.68c.35,0,.64,0,.93,0l.44,0c.18.57.47,1,1.13,1s.86-.43,1-1a3.55,3.55,0,0,1,1.34,0A2.35,2.35,0,0,1,25,32.15a2.38,2.38,0,0,1-1.84-.77A2.17,2.17,0,0,1,22.55,29.68Z"/><path class="cls-1" d="M22,26.29a4.9,4.9,0,0,1,0,1.38,4.92,4.92,0,0,1-1.33,0,1.59,1.59,0,0,1-.08-.35c0-.33,0-.66,0-1A3.44,3.44,0,0,1,22,26.29Z"/><path class="cls-1" d="M29.43,26.29a5.15,5.15,0,0,1,0,1.36,1.52,1.52,0,0,1-.69.08H28.1a3.68,3.68,0,0,1-.07-1.4A3.85,3.85,0,0,1,29.43,26.29Z"/><path class="cls-1" d="M7.72,3.62,7.76,5c1,.11,1.94,0,2.88.07a2.53,2.53,0,0,1,.07,1.38c-.37.16-.77,0-1.21.11-.21.38-.43.79-.68,1.2s-.53.79-.8,1.19a4.29,4.29,0,0,0,.84.86l.83.75a5.35,5.35,0,0,1-.89,1.12c-.32-.27-.63-.51-.92-.77s-.55-.5-.85-.78c-.11.08-.21.13-.3.21A13.08,13.08,0,0,1,5.2,11.63a6,6,0,0,1-.89-1.05,5.45,5.45,0,0,1,.86-.81C5.43,9.5,5.7,9.25,6,9a13,13,0,0,0-.79-1.23L4.5,6.52,3.33,6.46a3.55,3.55,0,0,1,0-1.38A3.41,3.41,0,0,1,3.72,5H6.17a2,2,0,0,0,.09-.37c0-.33,0-.66,0-1A2.58,2.58,0,0,1,7.72,3.62Zm0,2.91a3.43,3.43,0,0,0-.77,0,1.83,1.83,0,0,0-.7.06A2.17,2.17,0,0,0,7,7.68,3.06,3.06,0,0,0,7.75,6.53Z"/><path class="cls-1" d="M42.46,3.53h1.18a4.11,4.11,0,0,1,.21.42c.47,1.23.93,2.45,1.39,3.68.35.91.69,1.83,1,2.74,0,.14.08.28.13.44a4.33,4.33,0,0,1-1.3.48c-.31-.51-.39-1.11-.69-1.6a13.87,13.87,0,0,0-2.71,0c-.34.47-.39,1.1-.73,1.63a5.72,5.72,0,0,1-1.26-.46C39.8,10.35,42.12,4.19,42.46,3.53Zm.6,2.62a6.79,6.79,0,0,0-.74,1.94,2,2,0,0,0,.73.05,1.42,1.42,0,0,0,.71-.07A8.2,8.2,0,0,0,43.06,6.15Z"/></g></g></g></svg>