<svg xmlns="http://www.w3.org/2000/svg" viewBox="0 0 50 46.14"><defs><style>.cls-1{fill:#bfbfbf;}</style></defs><g id="Capa_2" data-name="Capa 2"><g id="Capa_1-2" data-name="Capa 1"><g id="servicios-2"><path class="cls-1" d="M24.19,1.19,24.26.1a3.15,3.15,0,0,1,1.37,0l.09,1.18a10.1,10.1,0,0,1,4.1,1.36A9.49,9.49,0,0,1,34.3,9.8a4.53,4.53,0,0,0,.49.08h1.56c.19,0,.38,0,.59,0a4.16,4.16,0,0,1,.06.44c0,.43,0,.86,0,1.28a11.62,11.62,0,0,0,.24,2.76c.41,1.88.77,3.78,1.15,5.66a1.17,1.17,0,0,0,.11.33s.08.07.12.07.1,0,.11-.07a1.41,1.41,0,0,0,.05-.35c0-.62,0-1.24,0-1.85,0-.19,0-.37.05-.57a2.43,2.43,0,0,1,.31-.05h8.72A2.63,2.63,0,0,1,48,18c0,.59,0,1.18,0,1.78,0,.21,0,.42,0,.64a15.2,15.2,0,0,0,1.91.14,1.51,1.51,0,0,1,.08.38c0,1.16,0,2.33,0,3.49a2.83,2.83,0,0,1-.06.37l-.84.06a2.74,2.74,0,0,0-.09.39c0,.22,0,.43,0,.65V46a1.2,1.2,0,0,1-.28.1H44.15a.8.8,0,0,1-.21-.05,1.27,1.27,0,0,1-.09-.77V37.58a3,3,0,0,0-.43-.09c-.22,0-.43,0-.64,0H7.18a3.39,3.39,0,0,0-1,.06,1.76,1.76,0,0,0-.09.78v6.92c0,.26,0,.52,0,.82a2.55,2.55,0,0,1-.42.08H1.44a2.11,2.11,0,0,1-.35,0A1.66,1.66,0,0,1,1,45.3V25.68a2,2,0,0,0-.07-.8l-.86-.09A5.67,5.67,0,0,1,0,23.37Q0,22.7,0,22a11.62,11.62,0,0,1,0-1.44c.66-.16,1.31,0,1.94-.14A7.66,7.66,0,0,0,2,19c0-.45,0-.9,0-1.38.16,0,.27-.06.38-.06,2.81,0,5.61,0,8.42,0a2.31,2.31,0,0,1,.32,0,2.42,2.42,0,0,1,.07.47c0,.59,0,1.19,0,1.78a4.56,4.56,0,0,0,0,.54c.23.09.28,0,.31-.19.17-.84.35-1.68.51-2.52.23-1.11.45-2.23.66-3.35a7.33,7.33,0,0,0,.11-1.14c0-.83,0-1.66,0-2.49V10a2.23,2.23,0,0,1,.45-.09H15c.18,0,.37,0,.55,0C16.35,4.91,19.18,2,24.19,1.19ZM45.26,22a3.38,3.38,0,0,0-.94-.06H5.66a4,4,0,0,0-.49,0C5,22,4.9,22,4.78,22c-.11.71-.15,7.33-.07,10.38a4,4,0,0,0,0,.44,4,4,0,0,0,.44,0H10a2.4,2.4,0,0,0,.43-.07c0-.27,0-.51,0-.74v-2.5a3.65,3.65,0,0,1,.06-.51l.81,0c.16,0,.32,0,.52,0,0,.24,0,.45,0,.66,0,.88,0,1.76,0,2.64a2.44,2.44,0,0,0,.07.46,2.43,2.43,0,0,0,.33,0h6.91a1.77,1.77,0,0,0,.37-.06c0-.26,0-.5,0-.73v-2.5a5,5,0,0,1,.05-.5,2.49,2.49,0,0,1,1.38.06v.71c0,.84,0,1.67,0,2.5a2.21,2.21,0,0,0,.07.46c.57.08,5.81.12,7.23.06a3.07,3.07,0,0,0,.38,0c0-.26,0-.49,0-.73,0-.85,0-1.71,0-2.56a2.83,2.83,0,0,1,.08-.48,2.94,2.94,0,0,1,1.32.08c0,.25,0,.48,0,.72,0,.83,0,1.66,0,2.5a2.44,2.44,0,0,0,.07.46c.68.1,3.89.13,7.09.06.16,0,.32,0,.47,0a1.23,1.23,0,0,0,.1-.72c0-.86,0-1.71,0-2.57A3.78,3.78,0,0,1,38,29a4.56,4.56,0,0,1,1.33.07,9.85,9.85,0,0,1,0,1.21c0,.43,0,.86,0,1.28a8.75,8.75,0,0,0,0,1.24c.17,0,.3,0,.44,0h5a2.28,2.28,0,0,0,.39-.06c.1-.64.15-8.29.07-10.37A3.56,3.56,0,0,0,45.26,22ZM17.1,9.85l.82,0H32.11c.23,0,.47.06.68-.11a7.88,7.88,0,0,0-15.69.08ZM4.74,36A1,1,0,0,0,5,36H45a1.52,1.52,0,0,0,.33-.08,4.53,4.53,0,0,0-.09-1.63H5.69a5.42,5.42,0,0,0-.57,0,2.34,2.34,0,0,0-.38.09Zm10.7-15.5c.57.07,17.83.12,18.82.06a1.78,1.78,0,0,0,.31-.08,4.8,4.8,0,0,0-.06-.56c-.31-1.59-.63-3.17-.95-4.75a2.47,2.47,0,0,0-.14-.34l-.46.44a17.08,17.08,0,0,1-1.45,1.25,11.3,11.3,0,0,1-9.23,1.74,10.55,10.55,0,0,1-5.39-3c-.09-.09-.17-.23-.34-.17-.2.51-.88,3.67-1.11,5.13C15.43,20.23,15.44,20.32,15.44,20.45ZM32,14H18.16a1.29,1.29,0,0,0-.26.08,8.15,8.15,0,0,0,4,2.59,10.47,10.47,0,0,0,7-.35A6.79,6.79,0,0,0,32,14Zm3.51-2.54a2.46,2.46,0,0,0-.93-.07H15.09c-.23,0-.47-.07-.7.11a1.74,1.74,0,0,0,0,1c.71.1,17.43.15,20.63.06a3.44,3.44,0,0,0,.43,0A2.16,2.16,0,0,0,35.5,11.41Zm-33,13.45c0,.31,0,.54,0,.77v15c0,.14,0,.28,0,.43s0,.26.08.38a5.53,5.53,0,0,0,2.1-.07,15,15,0,0,0,0-1.9,8.37,8.37,0,0,0-.07-1.94c-.43-.19-.89,0-1.32-.22,0-.27,0-.55,0-.83V25.76c0-.24,0-.48,0-.71a.7.7,0,0,0-.1-.19ZM47.55,41.44V25.17a1.32,1.32,0,0,0-.06-.3h-.66c0,.19,0,.35,0,.51,0,.64,0,1.28,0,1.93q0,4.67,0,9.33a1.85,1.85,0,0,1-.06.77c-.44.16-.92,0-1.37.18,0,.43,0,.85,0,1.28s0,.9,0,1.35a5.12,5.12,0,0,0,.05,1.24A7.16,7.16,0,0,0,47.55,41.44ZM40.28,19.08a4.48,4.48,0,0,0,0,1.37,1.32,1.32,0,0,0,.3.06h5.56a1.73,1.73,0,0,0,.37-.1c0-.23,0-.44,0-.65s.06-.48-.07-.68A55.38,55.38,0,0,0,40.28,19.08ZM3.53,20.44a57.06,57.06,0,0,0,5.74.07,2.43,2.43,0,0,0,.4-.05,2.28,2.28,0,0,0,0-1.4C9.08,19,5.4,18.94,3.9,19a2.71,2.71,0,0,0-.37.05A4.06,4.06,0,0,0,3.53,20.44Zm32.59,0a1,1,0,0,0,.8,0,1.13,1.13,0,0,0,0-.26Q36.3,17.09,35.7,14a1.11,1.11,0,0,0-.8,0,1,1,0,0,0,0,.22C35.28,16.31,35.7,18.37,36.12,20.45Zm-22.22,0c.15-.78.3-1.5.44-2.22s.28-1.4.41-2.1A13.77,13.77,0,0,0,15.13,14c-.3,0-.55-.11-.79.08a1.66,1.66,0,0,0-.06.21l-.72,3.55c-.15.75-.3,1.49-.44,2.24a3,3,0,0,0,0,.42ZM2.49,44.66a12.39,12.39,0,0,0,2.12,0,4.59,4.59,0,0,0,0-1.57,3.24,3.24,0,0,0-1.07,0,2,2,0,0,0-1,.1A8.26,8.26,0,0,0,2.49,44.66ZM45.4,43a3.21,3.21,0,0,0,0,1.63,11.63,11.63,0,0,0,2,0,3.42,3.42,0,0,0,0-1.61A11.6,11.6,0,0,0,45.4,43ZM1.49,22a4,4,0,0,0,0,1.34l.8,0a2.52,2.52,0,0,0,.86-.06A2.42,2.42,0,0,0,3.12,22,8.22,8.22,0,0,0,1.49,22Zm45.34,0a3.81,3.81,0,0,0,0,1.35,5.78,5.78,0,0,0,1.61,0A2.17,2.17,0,0,0,48.41,22h-.89C47.31,21.94,47.1,22,46.83,22Z"/><path class="cls-1" d="M41.38,24.29c-.61.08-9.12.13-10.45.07a2.17,2.17,0,0,1-.35-.07,3.18,3.18,0,0,1,0-1.34,1.5,1.5,0,0,1,.22-.06H41.06a2.07,2.07,0,0,1,.3.05A3.45,3.45,0,0,1,41.38,24.29Z"/><path class="cls-1" d="M43.66,24.34l-.9,0a3.71,3.71,0,0,1-.44-.05,5.72,5.72,0,0,1,0-1.37,4.71,4.71,0,0,1,1.35,0A3.6,3.6,0,0,1,43.66,24.34Z"/><path class="cls-1" d="M31.08,8l-1.19.61c-.33-.45-.61-.88-.94-1.27s-.66-.74-1-1.15a7.53,7.53,0,0,1,.72-1A6.29,6.29,0,0,1,31.08,8Z"/><path class="cls-1" d="M26.31,3.92a3.19,3.19,0,0,1,1.28.51,1.58,1.58,0,0,1-.27.65c-.09.19-.21.36-.34.58a7.49,7.49,0,0,1-1.06-.45A5.82,5.82,0,0,1,26.31,3.92Z"/></g></g></g></svg>