<svg xmlns="http://www.w3.org/2000/svg" viewBox="0 0 46.08 49.27"><defs><style>.cls-1{fill:#bfbfbf;}</style></defs><g id="Capa_2" data-name="Capa 2"><g id="Capa_1-2" data-name="Capa 1"><g id="servicios-8"><path class="cls-1" d="M15.11,49.16a19.83,19.83,0,0,1-2-.43L7,47.36l-4.74-1C1.77,46.2,1.3,46.1.83,46,.19,45.83,0,45.6,0,44.92V1C0,.2.42-.12,1.22,0L3.34.5,10.19,2c1.65.36,3.3.72,4.94,1.1a2.12,2.12,0,0,0,1,0l5.77-1.28L27.44.61c.82-.18,1.63-.35,2.44-.55a2.26,2.26,0,0,1,1,0c3.26.74,6.53,1.46,9.8,2.19l4.36,1a2.34,2.34,0,0,1,.38.09.81.81,0,0,1,.6.78v42c0,.73.33,2.42-.27,3-.44.41-.93.15-1.42,0l-6.65-1.48L30.93,46.1a2.15,2.15,0,0,0-.91,0l-5.57,1.24-5.64,1.25a20.5,20.5,0,0,1-2.9.62A4.24,4.24,0,0,1,15.11,49.16ZM44.36,4.77c-.26-.07-.47-.15-.68-.19l-3.84-.85c-3-.66-5.94-1.31-8.91-2a2.27,2.27,0,0,0-1.1,0c-1.47.34-2.95.66-4.42,1l-4.68,1c-1.5.33-3,.66-4.48,1a2.72,2.72,0,0,1-1.3,0c-1.28-.3-2.56-.58-3.84-.86L2.39,2l-.62-.12c0,.08-.09.12-.09.15q0,21,0,42.05c0,.13,0,.26,0,.41l.51.14c1.11.25,2.22.51,3.33.75l9.55,2.12a2.45,2.45,0,0,0,1.11,0L22.79,46l7.05-1.57a2.27,2.27,0,0,1,1.1,0l11.92,2.65c.47.11.94.19,1.41.29a.75.75,0,0,0,.08-.22C44.36,33.05,44.36,19,44.36,4.77Z"/><path class="cls-1" d="M30.9,18.65c.21.14.39.25.57.38a3.39,3.39,0,0,1,1,1,2.3,2.3,0,0,1,0,2.54,3.8,3.8,0,0,1-2,1.55,7,7,0,0,1-3.42.43,2.44,2.44,0,0,0-.86-.05c-.05.15-.1.29-.16.43A3.28,3.28,0,0,1,23,27.07c-.83,0-1.67,0-2.5,0s-1.71,0-2.56,0a3,3,0,0,1-2.48-1.26,2.8,2.8,0,0,1-.61-1.64c0-.24,0-.48,0-.72v-8.6a4.86,4.86,0,0,0,0-.66,1.22,1.22,0,0,0-2.43.09c0,.41,0,.83,0,1.24a2.59,2.59,0,0,1-.2,1,2.46,2.46,0,0,1-4.66-.41,4.6,4.6,0,0,1-.08-.91c0-1.6,0-3.2,0-4.8,0-.23,0-.47,0-.7-.17-.12-.32-.21-.47-.3a2.45,2.45,0,1,1,3.71-2.65,2.41,2.41,0,0,1-.94,2.56,4.61,4.61,0,0,1-.59.37c0,.15,0,.32,0,.49,0,1.69,0,3.37,0,5.06a2.36,2.36,0,0,0,0,.46.79.79,0,0,0,.84.66.72.72,0,0,0,.74-.69,11.62,11.62,0,0,0,0-1.18,3.08,3.08,0,0,1,.31-1.4,2.86,2.86,0,0,1,5.44,1.06c0,.22,0,.44,0,.66v8.6c0,.2,0,.4,0,.6a1.51,1.51,0,0,0,1.4,1.4h4.93a2.55,2.55,0,0,0,.39,0A1.62,1.62,0,0,0,24.6,23.8l-.55-.43a3.12,3.12,0,0,1-.75-.91,2.29,2.29,0,0,1,.26-2.64,3.51,3.51,0,0,1,.92-.84l.49-.33c-.34-.6-.68-1.16-1-1.75a17.88,17.88,0,0,1-.75-1.74,4,4,0,0,1,.29-3.43A4.83,4.83,0,0,1,28.34,9a4.78,4.78,0,0,1,4.28,3.37,4.17,4.17,0,0,1,0,2.83,15.61,15.61,0,0,1-1.22,2.54C31.23,18.06,31.07,18.35,30.9,18.65Zm-3,1.29a3,3,0,0,0,.28-.31c.57-.85,1.16-1.7,1.71-2.57A12.2,12.2,0,0,0,31,15a2.82,2.82,0,0,0,.23-1.22,3.29,3.29,0,0,0-4.88-2.66A3.11,3.11,0,0,0,24.92,15c.13.28.24.57.37.84a25.6,25.6,0,0,0,2,3.23Zm-2,.14a2,2,0,0,0-.9.51.9.9,0,0,0,0,1.51,2,2,0,0,0,.48.33,5.36,5.36,0,0,0,4.69,0,2,2,0,0,0,.76-.61.78.78,0,0,0,0-1,2.24,2.24,0,0,0-1.09-.75L29.2,21c-.2.26-.39.53-.6.78a.81.81,0,0,1-1.31,0c-.1-.11-.19-.24-.28-.36ZM9,7.39a.86.86,0,0,0-.83-.84.87.87,0,0,0-.81.8A.82.82,0,0,0,9,7.39Z"/><path class="cls-1" d="M36.16,26c0,.16,0,.27,0,.38a1.13,1.13,0,0,0,.26.84c1.21,1.64,2.4,3.3,3.59,4.94.78,1.09,1.57,2.17,2.35,3.25a2.52,2.52,0,0,1,.28.44A.79.79,0,0,1,42,36.91a3,3,0,0,1-.52,0H28.71a.81.81,0,0,1-.63-1.27c.12-.2.27-.39.41-.58,1.91-2.63,3.8-5.25,5.71-7.87a1.47,1.47,0,0,0,.31-1c0-1.49,0-3,0-4.47a4.51,4.51,0,0,1,0-.52.79.79,0,0,1,1-.71,2.35,2.35,0,0,1,.37.14l3.64,1.82a2.34,2.34,0,0,1,.39.25.81.81,0,0,1,0,1.25,2,2,0,0,1-.4.24l-3,1.5C36.42,25.8,36.31,25.87,36.16,26Zm-5.68,9.34c.73,0,1.38,0,2,0a11.27,11.27,0,0,0,1.93,0c.08-.49.11-4.57.05-5.28,0,0-.06-.06-.09-.09s-.09,0-.11.06Q32.43,32.47,30.58,35S30.53,35.13,30.48,35.29Zm9.73,0c-.11-.18-.15-.28-.21-.36l-3.67-5s-.08,0-.14,0a.48.48,0,0,0,0,.17V35a1.29,1.29,0,0,0,.08.31ZM36.17,24a2.43,2.43,0,0,0,1.27-.67,5.28,5.28,0,0,0-1.27-.59A5.31,5.31,0,0,0,36.17,24Z"/><path class="cls-1" d="M7.49,43.51H4.6a4.7,4.7,0,0,1-.53,0,.79.79,0,0,1-.77-.82,28.85,28.85,0,0,1,0-3.48,6.78,6.78,0,0,1,4.3-5.83,5.78,5.78,0,0,1,4.42-.21,5.13,5.13,0,0,1,3.43,3.91,5.27,5.27,0,0,1-2.59,5.76,4.85,4.85,0,0,1-2,.64c-.32,0-.65,0-1,0ZM5,41.84l.36,0h4.92a3.69,3.69,0,0,0,.36-7.36A5.35,5.35,0,0,0,5,38.89,16.06,16.06,0,0,0,5,41.84Z"/><path class="cls-1" d="M30.38,13.93a2.45,2.45,0,1,1-2.46-2.45A2.45,2.45,0,0,1,30.38,13.93Zm-2.46.83a.84.84,0,0,0,.82-.78.83.83,0,0,0-.8-.86.87.87,0,0,0-.83.78A.86.86,0,0,0,27.92,14.76Z"/></g></g></g></svg>