<svg xmlns="http://www.w3.org/2000/svg" viewBox="0 0 46 45.97"><defs><style>.cls-1{fill:#bfbfbf;}</style></defs><g id="Capa_2" data-name="Capa 2"><g id="Capa_1-2" data-name="Capa 1"><g id="servicios-6"><path class="cls-1" d="M1.51,45.89A2,2,0,0,1,.05,43.56,2.05,2.05,0,0,1,1.85,42h.29l.27,0,0-.06s0,0,0-.05c.08-.92.17-1.83.25-2.75l.78-9.68a.61.61,0,0,0,0-.15l-.33-.15A5.09,5.09,0,0,1,0,24.49c0-.4,0-.81,0-1.21a.9.9,0,0,1,.56-.91c.93-.49,1.85-1,2.77-1.51,1.76-1,3.46-2.05,5.16-3.14.17-.11.35-.23.53-.33a.66.66,0,0,1,.74,1.09,2.43,2.43,0,0,1-.28.2C7.74,19.81,6,20.9,4.19,21.92l-.53.32c0,.17.14.14.23.14H6.25c.84,0,1.68,0,2.53,0A1,1,0,0,0,9.67,22c.93-1.07,1.89-2.12,2.84-3.17l4.5-5a2,2,0,0,0,.39-.57l-.27.17-4.57,3.19A3.67,3.67,0,0,1,12,17a.65.65,0,0,1-.86-.23.63.63,0,0,1,.11-.83,3.22,3.22,0,0,1,.46-.34c1.77-1.25,3.55-2.48,5.3-3.75S20.32,9.36,22,8.14a.8.8,0,0,0,.34-.73q0-3.07,0-6.15c0-.15,0-.3,0-.46,0-.66.4-.93,1-.74l2.25.71,6.07,2a2.35,2.35,0,0,1,.37.14,1,1,0,0,1,.61.9,1,1,0,0,1-.56.93,2.53,2.53,0,0,1-.48.19L24.26,7.24l-.52.19a.38.38,0,0,0,.13.56c.35.27.69.55,1,.81,2.89,2.19,5.81,4.33,8.8,6.37,2.8,1.92,5.65,3.76,8.58,5.46,1,.56,2,1.07,2.92,1.61l.45.25a.62.62,0,0,1,.33.57,16.81,16.81,0,0,1-.05,2,5,5,0,0,1-3.07,4l-.3.13c-.12.22,0,.43,0,.64s0,.42,0,.63a.65.65,0,0,1-1.29.05,4.46,4.46,0,0,1-.07-.51l-.06-.45c-.59-.1-1.18-.18-1.75-.31a5.73,5.73,0,0,1-1.58-.75c-.15.09-.11.21-.11.32.05,1,.11,2,.17,2.92L38,34.51c.1,1.68.21,3.36.31,5,0,.58.06,1.15.1,1.73,0,.19,0,.38,0,.59a1.57,1.57,0,0,0,.28.06h3.1a1.41,1.41,0,0,0,.25,0c0-.11,0-.2,0-.29-.11-1.38-.23-2.75-.34-4.12s-.21-2.64-.31-4a1.93,1.93,0,0,1,0-.34.63.63,0,0,1,.61-.58.62.62,0,0,1,.68.49,3,3,0,0,1,.07.51c.1,1.17.19,2.33.28,3.5.12,1.49.24,3,.37,4.47a2.73,2.73,0,0,0,.08.34l.52,0a2,2,0,0,1,1.85,1.55,2.09,2.09,0,0,1-1.39,2.44,1,1,0,0,1-.35,0q-9.41,0-18.8,0H6.19c-1.37,0-2.73,0-4.1,0A2.2,2.2,0,0,1,1.51,45.89Zm16.75-4h9.09c.11,0,.24,0,.31-.12l-.21-.25c-.32-.4-.66-.8-.94-1.23a14.72,14.72,0,0,1-1.68-3.51,36.77,36.77,0,0,1-1.61-6.46,3.46,3.46,0,0,0-.17-.76c-.17.07-.15.2-.17.3a42.1,42.1,0,0,1-1.35,5.88c-.22.69-.47,1.37-.73,2a.65.65,0,0,1-.85.38.67.67,0,0,1-.39-.85c0-.13.09-.25.13-.38.11-.29.22-.57.32-.86a39.74,39.74,0,0,0,1.55-6.53,1.17,1.17,0,0,0,0-.26,5.94,5.94,0,0,1-3-2.32l-.05,0-.18.22a5,5,0,0,1-2.45,1.91l-.44.2c-.14,4.11-.29,8.2-.43,12.3a1.32,1.32,0,0,0,0,.24,2.67,2.67,0,0,0,.4,0,3.38,3.38,0,0,0,1.18-.44A5.26,5.26,0,0,0,18,40.17a6.25,6.25,0,0,1,.4-.5.67.67,0,0,1,.84-.09.66.66,0,0,1,.23.81,1.55,1.55,0,0,1-.21.35c-.24.3-.48.59-.73.88Zm12.71,0a1.43,1.43,0,0,0,.05-.67c-.06-1.84-.13-3.68-.2-5.51q-.11-3-.23-6a2.32,2.32,0,0,0-.05-.38c-.28-.11-.53-.2-.77-.32a4.13,4.13,0,0,1-.65-.36,6.21,6.21,0,0,1-.63-.49A5.38,5.38,0,0,1,28,27.6c-.17-.19-.32-.41-.47-.6l-.09,0a1.34,1.34,0,0,0-.11.14,5.13,5.13,0,0,1-2.57,2,1.18,1.18,0,0,0-.31.19c.1.58.19,1.14.3,1.7a31.26,31.26,0,0,0,1.83,6.45A11.4,11.4,0,0,0,28,40.13a5,5,0,0,0,1.47,1.36A2.85,2.85,0,0,0,31,41.91Zm6.14,0c0-.2,0-.37,0-.54L37,39.44q-.27-4.34-.53-8.66c-.07-1-.12-2-.18-2.93,0-.08,0-.15,0-.23s0-.2-.15-.23a1.85,1.85,0,0,0-.14.14,5.16,5.16,0,0,1-3.65,1.95l-.34.06c0,.17,0,.3,0,.43,0,.48,0,1,0,1.44l.33,9c0,.39,0,.77.05,1.15,0,.11,0,.22,0,.31A45.63,45.63,0,0,0,37.11,41.87Zm-28.18,0c.58.07,4.18.06,4.63,0a1.38,1.38,0,0,0,.09-.67l.21-5.57L14,30.07c0-.19.07-.39-.09-.56s-.41,0-.62-.08a6.8,6.8,0,0,1-.89-.22,5,5,0,0,1-2.37-1.65c-.07-.08-.11-.22-.27-.15C9.71,28,8.9,41.43,8.93,41.89ZM23.05,43.3H2.59a5.42,5.42,0,0,0-.57,0,.65.65,0,0,0,0,1.3,4.38,4.38,0,0,0,.63,0h40.8a4.42,4.42,0,0,0,.63,0,.65.65,0,0,0,0-1.3,5.61,5.61,0,0,0-.58,0ZM7.52,41.94c0-.31,0-.53.05-.76.14-2.2.27-4.39.4-6.59l.36-5.84c0-.09,0-.2-.11-.25a5.43,5.43,0,0,1-1.57.76c-.57.14-1.16.21-1.76.31,0,.11,0,.22,0,.33-.17,2-.33,3.93-.49,5.89-.09,1.11-.19,2.21-.28,3.32-.07.8-.13,1.6-.18,2.41a3.29,3.29,0,0,0,0,.41Zm19-19.62c0-.13,0-.26-.07-.38l-.78-2.59c-.55-1.81-1.09-3.63-1.63-5.44-.28-.92-.55-1.83-.82-2.75,0-.07-.05-.15-.08-.21s0-.17-.18-.13-.1.25-.15.39l-3.27,11s0,.08,0,.12a.43.43,0,0,0,.16.05h6.6A.67.67,0,0,0,26.51,22.32Zm8.25,0a2.12,2.12,0,0,0-.47-.63l-6.26-7C27,13.62,26,12.48,25,11.35c-.08-.09-.13-.24-.29-.21s0,0,0,.06q1.56,5.27,3.13,10.52c.05.18.12.36.19.54a.05.05,0,0,0,0,0l0,0C28.48,22.4,34.07,22.41,34.76,22.35ZM21.35,11.12a1.44,1.44,0,0,0-.46.42L13.28,20l-1.77,2c-.09.1-.25.19-.18.4l.22,0q3.1,0,6.21,0a1.64,1.64,0,0,0,.25,0C18.25,21.8,21.3,11.58,21.35,11.12Zm15.8,12.66a3.73,3.73,0,0,0,1.64,3.74,3.78,3.78,0,0,0,4.26-.08,3.61,3.61,0,0,0,1.51-3.64C44.13,23.72,37.85,23.7,37.15,23.78Zm-35.76,0A3.72,3.72,0,0,0,3.2,27.58a3.63,3.63,0,0,0,4.12-.13,3.69,3.69,0,0,0,1.55-3.67l-.26,0C7.4,23.68,1.88,23.72,1.39,23.8Zm9,0A3.69,3.69,0,0,0,12,27.49a3.83,3.83,0,0,0,4.32,0A3.73,3.73,0,0,0,17.8,23.8c-.5-.09-4.5-.12-7-.06C10.62,23.74,10.49,23.77,10.38,23.78Zm8.91,0a3.73,3.73,0,0,0,1.64,3.74,3.85,3.85,0,0,0,4.32-.11,3.73,3.73,0,0,0,1.47-3.61c-.49-.09-5.14-.13-7.11-.06A3.11,3.11,0,0,0,19.29,23.78Zm8.87,0a3.79,3.79,0,0,0,1.89,3.83,3.76,3.76,0,0,0,5.6-3.82.38.38,0,0,0-.15-.05H28.44C28.37,23.74,28.29,23.77,28.16,23.79Zm.54-10.44-.06.07,8.06,9h5.49c.05,0,.11-.05.24-.11a157.73,157.73,0,0,1-13.62-8.89A.35.35,0,0,0,28.7,13.35Zm1.75-9.52C30,3.6,25,2,24,1.69a2.36,2.36,0,0,0-.29,0,1.29,1.29,0,0,0,0,.25V5.7a1.74,1.74,0,0,0,.07.3C26,5.29,28.17,4.58,30.45,3.83Z"/></g></g></g></svg>