<svg xmlns="http://www.w3.org/2000/svg" viewBox="0 0 50 35.64"><defs><style>.cls-1{fill:#bfbfbf;}</style></defs><g id="Capa_2" data-name="Capa 2"><g id="Capa_1-2" data-name="Capa 1"><g id="servicios-3"><path class="cls-1" d="M32.81,5.32c-.15,0-.33,0-.52,0H22.83c-.6,0-.63,0-.63.65s0,1,0,1.44.08.48.47.49H24.3a.77.77,0,0,1,.88.64c.18.53.35,1.07.53,1.6.07.21.17.42.25.62a2,2,0,0,0,.83.09h7a2.59,2.59,0,0,1,2.44,2.41c0,.32,0,.63,0,.94,0,.15,0,.29,0,.46a2,2,0,0,0,.3.09h2.44a1.5,1.5,0,0,0,.65-.2l4.54-2.27,4.37-2.19L49,9.87a.69.69,0,0,1,1,.58,2.13,2.13,0,0,1,0,.44V31.63a2.07,2.07,0,0,1,0,.5.67.67,0,0,1-.84.54,2,2,0,0,1-.4-.16l-8.52-4.26L40,28.13a2.43,2.43,0,0,0-1.37-.33c-.55,0-1.09,0-1.63,0a1.09,1.09,0,0,0-.65.1c0,.13-.06.29-.07.45,0,.32,0,.63,0,.94a2.59,2.59,0,0,1-2.14,2.37l-.75.06H31.23a1,1,0,0,0-.61.09,1.33,1.33,0,0,0-.09.68c0,.67,0,1.34,0,2a3.63,3.63,0,0,1,0,.57.6.6,0,0,1-.58.55,4.18,4.18,0,0,1-.5,0l-18.67,0a2.75,2.75,0,0,1-.5,0A.6.6,0,0,1,9.67,35a4.1,4.1,0,0,1,0-.5V32.47a1.3,1.3,0,0,0-.12-.69,1.46,1.46,0,0,0-.66-.1H6.43a2.56,2.56,0,0,1-2.51-2.53c0-.55,0-1.09,0-1.63s0-.72-.7-.73-1.26,0-1.88,0H.83c-.64,0-.8-.19-.83-.85V17a3.82,3.82,0,0,1,0-.68.56.56,0,0,1,.53-.52,4.26,4.26,0,0,1,.5,0h2a4.18,4.18,0,0,0,.5,0c.2,0,.29-.12.31-.33a4.1,4.1,0,0,0,0-.5c0-.52,0-1,0-1.56a2.53,2.53,0,0,1,1.41-2.21,1.79,1.79,0,0,1,.9-.25l.69,0h6.7c.57,0,.58,0,.76-.55s.33-1,.49-1.48l.18-.47a.69.69,0,0,1,.68-.46h1.44c.78,0,.78,0,.78-.75,0-1.25,0-2.51,0-3.76A2.76,2.76,0,0,1,18,2.54a2,2,0,0,1,1.68-1.49A5.86,5.86,0,0,1,20.66,1H32.83L33,.5A.68.68,0,0,1,33.61,0h.5l8.33,0a6.71,6.71,0,0,1,1,.06A3.11,3.11,0,0,1,46.05,2.8,3.14,3.14,0,0,1,44.15,6a3.83,3.83,0,0,1-1.53.26H34c-.68,0-1-.13-1.12-.81A1,1,0,0,0,32.81,5.32ZM20,30.42v0H33a4.2,4.2,0,0,0,.87-.07,1.22,1.22,0,0,0,1-1.15c0-.21,0-.42,0-.62v-15a1.28,1.28,0,0,0-1.32-1.37c-.25,0-.5,0-.75,0l-20.17,0H7a2.78,2.78,0,0,0-.86.11,1.14,1.14,0,0,0-.86,1.1,4.17,4.17,0,0,0,0,.5V28.72c0,.1,0,.21,0,.31a1.31,1.31,0,0,0,1.31,1.38H20Zm20.26-3.67,4.16,2.05s.12,0,.18,0a.58.58,0,0,0,.06-.19V13.89a.63.63,0,0,0-.06-.2,1,1,0,0,0-.24,0c-.77.32-3.78,1.87-4.11,2.11C40.19,16.37,40.19,26.11,40.27,26.75ZM11,31.84c0,.13-.05.29-.05.46,0,.41,0,.83,0,1.25,0,.76,0,.77.77.77l16.78,0,.58,0a1.22,1.22,0,0,0,.16-.83c0-.3,0-.59,0-.88s.06-.55-.17-.82l-.78,0-14.4,0-2.19,0A1,1,0,0,0,11,31.84Zm37.54-1.09a1.49,1.49,0,0,0,.08-.75V12.48c0-.17,0-.34,0-.5a1,1,0,0,0-.06-.23,10.78,10.78,0,0,0-2.41,1.16c0,.2,0,.43,0,.66V28.9a1.71,1.71,0,0,0,.09.79l2.15,1.06A.54.54,0,0,0,48.51,30.75ZM34.39,4.88c.23,0,.44,0,.64,0h7.52a3.8,3.8,0,0,0,.75-.06,1.74,1.74,0,0,0,1.36-1.39,1.77,1.77,0,0,0-.83-1.83,1.94,1.94,0,0,0-1.08-.25c-1.56,0-3.13,0-4.7,0H35c-.2,0-.42,0-.59.1A21.42,21.42,0,0,0,34.39,4.88Zm-1.5-2.46a2.07,2.07,0,0,0-.84-.08l-11.33,0h-.44c-.7,0-1,.31-1,1a1.21,1.21,0,0,0,0,.19V7.14a2.41,2.41,0,0,0,0,.38c0,.24.1.32.35.33a6.46,6.46,0,0,0,.88,0c.25,0,.33-.1.35-.35s0-.29,0-.44V5a2.74,2.74,0,0,1,0-.5.62.62,0,0,1,.6-.54H32a5.42,5.42,0,0,0,.57,0,1.63,1.63,0,0,0,.36-.07A4.1,4.1,0,0,0,32.89,2.42Zm3.49,13.72a1.24,1.24,0,0,0-.11.78v8.71a3.23,3.23,0,0,0,0,.44,1.78,1.78,0,0,0,.09.33,6.7,6.7,0,0,0,2.41-.07c0-.21,0-.44,0-.66v-7.2c0-.65,0-1.3,0-1.95a1.69,1.69,0,0,0-.08-.39A9.59,9.59,0,0,0,36.38,16.14ZM3.91,21.31V18c0-.16,0-.33,0-.5,0-.39-.1-.49-.48-.5H1.74l-.19,0a.31.31,0,0,0-.25.25,4.32,4.32,0,0,0,0,.5v7.13c0,.56.08.62.61.63s.84,0,1.25,0c.75,0,.78,0,.78-.77C3.92,23.6,3.91,22.46,3.91,21.31ZM24.46,10.67c-.09-.3-.17-.58-.26-.85-.2-.63-.2-.63-.88-.63h-6.5l-.43,0a.36.36,0,0,0-.3.2,4.06,4.06,0,0,0-.34,1.32,1.08,1.08,0,0,0,.66.1h7.25A1.27,1.27,0,0,0,24.46,10.67Z"/><path class="cls-1" d="M15.62,27.76H9a4.42,4.42,0,0,1-.63,0,.6.6,0,0,1-.57-.56,3.1,3.1,0,0,1,0-.43v-11a3.09,3.09,0,0,1,0-.43.64.64,0,0,1,.62-.59,3.27,3.27,0,0,1,.44,0l13.53,0h.44a.67.67,0,0,1,.67.61,2.2,2.2,0,0,1,0,.44v10.9a3.2,3.2,0,0,1,0,.44.68.68,0,0,1-.66.64c-.21,0-.42,0-.62,0H15.62ZM9.19,16.14c0,.12,0,.26,0,.41-.09,2.44,0,9.28.07,9.83.21.18.47.12.71.12,1.4,0,2.8,0,4.2,0h4.32a1.15,1.15,0,0,0,.73-.11,1.43,1.43,0,0,0,.07-.68V16.8a1.24,1.24,0,0,0-.09-.68,1.85,1.85,0,0,0-.74-.07H13.46L10,16A1.23,1.23,0,0,0,9.19,16.14Zm11.52,0a1.21,1.21,0,0,0-.12.76q0,4.41,0,8.82c0,.17,0,.34,0,.5a.29.29,0,0,0,.29.28c.33,0,.67,0,1,0s.28-.1.3-.32,0-.34,0-.51V16.87a1.23,1.23,0,0,0-.12-.76A3.51,3.51,0,0,0,20.71,16.11Z"/><path class="cls-1" d="M29.26,14.73c.48,0,1,0,1.44,0a1.65,1.65,0,0,1,1.65,1.62c0,.33,0,.66,0,1A1.68,1.68,0,0,1,30.73,19c-1,0-2,0-3,0a1.6,1.6,0,0,1-1.61-1.58c0-.37,0-.75,0-1.12a1.62,1.62,0,0,1,1.58-1.54Zm0,1.33H27.84c-.23,0-.35.13-.37.35a8.61,8.61,0,0,0,0,.88.32.32,0,0,0,.32.32,3.17,3.17,0,0,0,.44,0h2.31c.3,0,.42-.13.44-.42s0-.45,0-.68-.13-.45-.46-.46S29.69,16.06,29.28,16.06Z"/><path class="cls-1" d="M29.24,20.6h1.43a1.64,1.64,0,0,1,1.68,1.71,8.61,8.61,0,0,0,0,.88,1.68,1.68,0,0,1-1.66,1.68c-1,0-2,0-2.93,0a1.61,1.61,0,0,1-1.64-1.62c0-.35,0-.7,0-1.06a1.6,1.6,0,0,1,1.56-1.56h1.56Zm0,1.34h0c-.46,0-.92,0-1.38,0-.3,0-.41.12-.43.42a6.26,6.26,0,0,0,0,.75c0,.25.14.36.4.39h2.69c.29,0,.41-.14.43-.43s0-.45,0-.68-.13-.44-.47-.45S29.69,21.94,29.27,21.94Z"/><path class="cls-1" d="M41,3.82a2.34,2.34,0,0,1-.39,0,.65.65,0,0,1-.51-.62.62.62,0,0,1,.47-.65,2.48,2.48,0,0,1,.86,0,.59.59,0,0,1,.48.64.63.63,0,0,1-.5.63A3,3,0,0,1,41,3.82Z"/><path class="cls-1" d="M38.06,2.46a3,3,0,0,1,.39,0,.67.67,0,0,1,.5.7.63.63,0,0,1-.54.59,2.59,2.59,0,0,1-.68,0,.62.62,0,0,1-.59-.67.64.64,0,0,1,.56-.64Z"/><path class="cls-1" d="M15.9,19.2a1.39,1.39,0,0,1-.14.33,1.94,1.94,0,0,1-.33.37c-1,1-1.95,2-2.92,2.92a2.62,2.62,0,0,1-.48.4.56.56,0,0,1-.69-.06.62.62,0,0,1-.18-.74,1.24,1.24,0,0,1,.25-.35q1.61-1.62,3.23-3.23a1.4,1.4,0,0,1,.34-.26A.66.66,0,0,1,15.9,19.2Z"/><path class="cls-1" d="M14.6,24a.65.65,0,0,1-.64-.92,1.43,1.43,0,0,1,.14-.2l2.08-2.08a.65.65,0,0,1,.52-.17.62.62,0,0,1,.52.91,1.62,1.62,0,0,1-.26.34l-1.81,1.81A.82.82,0,0,1,14.6,24Z"/></g></g></g></svg>