<svg xmlns="http://www.w3.org/2000/svg" viewBox="0 0 47 47.01"><defs><style>.cls-1{fill:#bfbfbf;}</style></defs><g id="Capa_2" data-name="Capa 2"><g id="Capa_1-2" data-name="Capa 1"><g id="servicios-5"><path class="cls-1" d="M10.39,30.41H36.57c0-.12.06-.23.07-.34s0-.27,0-.41V4c0-.2,0-.39,0-.59a2.07,2.07,0,0,0-2-2c-.21,0-.43,0-.64,0H20.14a4.51,4.51,0,0,1-.52,0,.7.7,0,0,1-.7-.72A.68.68,0,0,1,19.61,0H34.36a4.68,4.68,0,0,1,1,.09A3.46,3.46,0,0,1,38,3.4c0,.51,0,1,0,1.53,0,.17,0,.35,0,.55a3.65,3.65,0,0,0,.42,0c.74,0,1.49,0,2.23,0a6.14,6.14,0,0,1,5.67,3.52A5.33,5.33,0,0,1,47,11.36c0,.3,0,.59,0,.88v19a6.19,6.19,0,0,1-5.48,6.06,11.66,11.66,0,0,1-1.18.06H31.06a1.5,1.5,0,0,0-.65.07,2.19,2.19,0,0,0,.07.23c.31.58,2.21,3.54,2.47,3.85.53,0,1.09,0,1.66,0a2.64,2.64,0,0,1,1.68.6,2.75,2.75,0,0,1,.94,2.9,2.7,2.7,0,0,1-2.37,2C33.92,47,33,47,32,47a.67.67,0,0,1-.29-1.28,1.4,1.4,0,0,1,.51-.1h2.4A1.36,1.36,0,0,0,36,44.26a1.37,1.37,0,0,0-1.26-1.38H12.31a1.41,1.41,0,0,0-1.25,1.4,1.38,1.38,0,0,0,1.26,1.33c.21,0,.43,0,.64,0H28.71a1.37,1.37,0,0,1,.34.07.68.68,0,0,1-.13,1.3,3.62,3.62,0,0,1-.47,0H12.65a2.94,2.94,0,0,1-1.92-.61,2.76,2.76,0,0,1,1.61-4.91c.58,0,1.17,0,1.73,0a43.05,43.05,0,0,0,2.52-4.05c-.05-.11-.16-.09-.25-.09H6.65a7.34,7.34,0,0,1-1.87-.19A6.11,6.11,0,0,1,.29,32.93,5.82,5.82,0,0,1,0,31.08V11.81A6.11,6.11,0,0,1,1.75,7.45,6.12,6.12,0,0,1,6.16,5.53c.72,0,1.45,0,2.17,0h.61c0-.17.06-.3.07-.43C9,4.54,9,4,9,3.4A3.36,3.36,0,0,1,10.7.49,3,3,0,0,1,12.32,0h4.11A.69.69,0,0,1,17,.69a.68.68,0,0,1-.55.67,3,3,0,0,1-.52,0H12.56a2.24,2.24,0,0,0-1.08.23,2.07,2.07,0,0,0-1.09,1.65,4.56,4.56,0,0,0,0,.64V29.7C10.37,29.92,10.38,30.13,10.39,30.41ZM9,7c-.11,0-.22,0-.34,0H6.09A4.86,4.86,0,0,0,1.71,10a5.55,5.55,0,0,0-.32,2V30a3.06,3.06,0,0,0,0,.35c.06.05.07.07.09.07a1.36,1.36,0,0,0,.29,0l7,0H8.9L9,30.33a.47.47,0,0,0,0-.14v-23A1.43,1.43,0,0,0,9,7Zm29.1,0c0,.23,0,.46,0,.7v22a2.77,2.77,0,0,0,0,.41,1.94,1.94,0,0,0,.07.33l.26,0H45.3a2.07,2.07,0,0,0,.3-.05c0-.22,0-.41,0-.6V12.1c0-.33,0-.67-.05-1A4.84,4.84,0,0,0,41.4,7H38.17ZM1.54,31.86a.69.69,0,0,0,0,.53A4.85,4.85,0,0,0,4.43,35.6,5.75,5.75,0,0,0,6.68,36H40.34c.25,0,.51,0,.76,0a4.85,4.85,0,0,0,4.32-3.43,1.05,1.05,0,0,0,.09-.63.58.58,0,0,0-.17-.06H1.75A.8.8,0,0,0,1.54,31.86Zm14.32,9.47c0,.05,0,.08.05.09s.06,0,.09,0H31l.06,0,.05-.08s0-.12-.07-.19c-.74-1.18-1.48-2.35-2.21-3.53a.51.51,0,0,0-.52-.31H19l-.6,0Z"/><path class="cls-1" d="M23.52,3.47a9,9,0,1,1-.05,18,9,9,0,0,1,.05-18Zm0,16.58a7.61,7.61,0,1,0-7.59-7.59A7.63,7.63,0,0,0,23.5,20.05Z"/><path class="cls-1" d="M23.51,28.33H15.35c-.19,0-.39,0-.58,0A2.39,2.39,0,0,1,12.46,26a2.43,2.43,0,0,1,2.27-2.46h17.2a3,3,0,0,1,1.14.2,2.41,2.41,0,0,1-.75,4.63c-.2,0-.39,0-.59,0Zm0-1.36H31.7a3.31,3.31,0,0,0,.7-.06,1,1,0,0,0-.09-2,3.89,3.89,0,0,0-.59,0H14.82a1,1,0,0,0-1,1,1,1,0,0,0,.9,1.05,4.57,4.57,0,0,0,.64,0Z"/><path class="cls-1" d="M22,12l.46-.43,2.87-2.87a2.13,2.13,0,0,1,1.26-.68,2,2,0,0,1,2,.87,2,2,0,0,1,.12,2.16,2.83,2.83,0,0,1-.42.56l-4.55,4.5a2.38,2.38,0,0,1-1.39.7,2.44,2.44,0,0,1-2-.58c-.34-.29-.65-.62-1-.94s-.62-.6-.9-.92a2,2,0,0,1,.64-3.22,2,2,0,0,1,2.24.28C21.63,11.62,21.81,11.81,22,12ZM27.6,10.2a.68.68,0,0,0-1-.7,1.48,1.48,0,0,0-.36.3l-2,2-1.53,1.54c-.48.46-.82.46-1.3,0l-.67-.66a1.49,1.49,0,0,0-.27-.23.68.68,0,0,0-1,.47.67.67,0,0,0,.19.59l.45.46c.39.39.77.78,1.17,1.16a1.09,1.09,0,0,0,1.62,0l.21-.2,4.12-4.09a1.33,1.33,0,0,0,.28-.3A1.44,1.44,0,0,0,27.6,10.2Z"/></g></g></g></svg>